<svg width="151" height="150" viewBox="0 0 151 150" fill="none" xmlns="http://www.w3.org/2000/svg">
<circle cx="75.5" cy="75" r="75" fill="#FF0000" fill-opacity="0.2"/>
<circle cx="75.5" cy="75" r="56" fill="#FF0000" fill-opacity="0.4"/>
<circle cx="76" cy="74.5" r="37.5" fill="#FF0000"/>
<path d="M76 60.375C73.1075 60.375 70.2799 61.2327 67.8748 62.8398C65.4697 64.4468 63.5952 66.7309 62.4883 69.4033C61.3813 72.0756 61.0917 75.0162 61.656 77.8532C62.2203 80.6902 63.6132 83.2961 65.6586 85.3414C67.7039 87.3868 70.3098 88.7797 73.1468 89.344C75.9838 89.9083 78.9244 89.6187 81.5968 88.5117C84.2691 87.4048 86.5532 85.5303 88.1602 83.1252C89.7673 80.7201 90.625 77.8926 90.625 75C90.6209 71.1225 89.0788 67.4049 86.3369 64.6631C83.5951 61.9213 79.8775 60.3791 76 60.375ZM81.2959 78.7041C81.4005 78.8086 81.4834 78.9327 81.5399 79.0692C81.5965 79.2058 81.6256 79.3522 81.6256 79.5C81.6256 79.6478 81.5965 79.7942 81.5399 79.9308C81.4834 80.0673 81.4005 80.1914 81.2959 80.2959C81.1914 80.4005 81.0673 80.4834 80.9308 80.5399C80.7942 80.5965 80.6478 80.6256 80.5 80.6256C80.3522 80.6256 80.2058 80.5965 80.0692 80.5399C79.9327 80.4834 79.8086 80.4005 79.7041 80.2959L76 76.5905L72.2959 80.2959C72.1914 80.4005 72.0673 80.4834 71.9308 80.5399C71.7942 80.5965 71.6478 80.6256 71.5 80.6256C71.3522 80.6256 71.2058 80.5965 71.0692 80.5399C70.9327 80.4834 70.8086 80.4005 70.7041 80.2959C70.5995 80.1914 70.5166 80.0673 70.4601 79.9308C70.4035 79.7942 70.3744 79.6478 70.3744 79.5C70.3744 79.3522 70.4035 79.2058 70.4601 79.0692C70.5166 78.9327 70.5995 78.8086 70.7041 78.7041L74.4095 75L70.7041 71.2959C70.493 71.0848 70.3744 70.7985 70.3744 70.5C70.3744 70.2015 70.493 69.9152 70.7041 69.7041C70.9152 69.493 71.2015 69.3744 71.5 69.3744C71.7985 69.3744 72.0848 69.493 72.2959 69.7041L76 73.4095L79.7041 69.7041C79.8086 69.5995 79.9327 69.5166 80.0692 69.4601C80.2058 69.4035 80.3522 69.3744 80.5 69.3744C80.6478 69.3744 80.7942 69.4035 80.9308 69.4601C81.0673 69.5166 81.1914 69.5995 81.2959 69.7041C81.4005 69.8086 81.4834 69.9327 81.5399 70.0692C81.5965 70.2058 81.6256 70.3522 81.6256 70.5C81.6256 70.6478 81.5965 70.7942 81.5399 70.9308C81.4834 71.0673 81.4005 71.1914 81.2959 71.2959L77.5905 75L81.2959 78.7041Z" fill="white"/>
</svg>
