<svg width="151" height="150" viewBox="0 0 151 150" fill="none" xmlns="http://www.w3.org/2000/svg">
<circle cx="75.5" cy="75" r="75" fill="#FF8A00" fill-opacity="0.2"/>
<circle cx="76" cy="75" r="56" fill="#FF8A00" fill-opacity="0.4"/>
<circle cx="75.5" cy="74.5" r="37.5" fill="#FF8A00"/>
<path d="M89.7616 71.4591C89.2314 70.905 88.683 70.3341 88.4762 69.832C88.285 69.3722 88.2738 68.61 88.2625 67.8717C88.2414 66.4992 88.2189 64.9439 87.1375 63.8625C86.0561 62.7811 84.5008 62.7586 83.1283 62.7375C82.39 62.7262 81.6278 62.715 81.168 62.5237C80.6673 62.317 80.095 61.7686 79.5409 61.2384C78.5706 60.3061 77.4681 59.25 76 59.25C74.5319 59.25 73.4308 60.3061 72.4591 61.2384C71.905 61.7686 71.3341 62.317 70.832 62.5237C70.375 62.715 69.61 62.7262 68.8717 62.7375C67.4992 62.7586 65.9439 62.7811 64.8625 63.8625C63.7811 64.9439 63.7656 66.4992 63.7375 67.8717C63.7262 68.61 63.715 69.3722 63.5237 69.832C63.317 70.3327 62.7686 70.905 62.2384 71.4591C61.3061 72.4294 60.25 73.5319 60.25 75C60.25 76.4681 61.3061 77.5692 62.2384 78.5409C62.7686 79.095 63.317 79.6659 63.5237 80.168C63.715 80.6278 63.7262 81.39 63.7375 82.1283C63.7586 83.5008 63.7811 85.0561 64.8625 86.1375C65.9439 87.2189 67.4992 87.2414 68.8717 87.2625C69.61 87.2738 70.3722 87.285 70.832 87.4762C71.3327 87.683 71.905 88.2314 72.4591 88.7616C73.4294 89.6939 74.5319 90.75 76 90.75C77.4681 90.75 78.5692 89.6939 79.5409 88.7616C80.095 88.2314 80.6659 87.683 81.168 87.4762C81.6278 87.285 82.39 87.2738 83.1283 87.2625C84.5008 87.2414 86.0561 87.2189 87.1375 86.1375C88.2189 85.0561 88.2414 83.5008 88.2625 82.1283C88.2738 81.39 88.285 80.6278 88.4762 80.168C88.683 79.6673 89.2314 79.095 89.7616 78.5409C90.6939 77.5706 91.75 76.4681 91.75 75C91.75 73.5319 90.6939 72.4308 89.7616 71.4591ZM74.875 68.25C74.875 67.9516 74.9935 67.6655 75.2045 67.4545C75.4155 67.2435 75.7016 67.125 76 67.125C76.2984 67.125 76.5845 67.2435 76.7955 67.4545C77.0065 67.6655 77.125 67.9516 77.125 68.25V76.125C77.125 76.4234 77.0065 76.7095 76.7955 76.9205C76.5845 77.1315 76.2984 77.25 76 77.25C75.7016 77.25 75.4155 77.1315 75.2045 76.9205C74.9935 76.7095 74.875 76.4234 74.875 76.125V68.25ZM76 82.875C75.6662 82.875 75.34 82.776 75.0625 82.5906C74.785 82.4052 74.5687 82.1416 74.441 81.8333C74.3132 81.5249 74.2798 81.1856 74.3449 80.8583C74.41 80.5309 74.5708 80.2303 74.8068 79.9943C75.0428 79.7583 75.3434 79.5975 75.6708 79.5324C75.9981 79.4673 76.3374 79.5007 76.6458 79.6285C76.9541 79.7562 77.2177 79.9725 77.4031 80.25C77.5885 80.5275 77.6875 80.8537 77.6875 81.1875C77.6875 81.6351 77.5097 82.0643 77.1932 82.3807C76.8768 82.6972 76.4476 82.875 76 82.875Z" fill="white"/>
</svg>
