<svg width="16" height="17" viewBox="0 0 16 17" fill="none" xmlns="http://www.w3.org/2000/svg">
<path d="M11.5 2.5H4.5C3.96957 2.5 3.46086 2.71071 3.08579 3.08579C2.71071 3.46086 2.5 3.96957 2.5 4.5V13.5C2.5 13.7652 2.60536 14.0196 2.79289 14.2071C2.98043 14.3946 3.23478 14.5 3.5 14.5H5C5.26522 14.5 5.51957 14.3946 5.70711 14.2071C5.89464 14.0196 6 13.7652 6 13.5V12.5H10V13.5C10 13.7652 10.1054 14.0196 10.2929 14.2071C10.4804 14.3946 10.7348 14.5 11 14.5H12.5C12.7652 14.5 13.0196 14.3946 13.2071 14.2071C13.3946 14.0196 13.5 13.7652 13.5 13.5V4.5C13.5 3.96957 13.2893 3.46086 12.9142 3.08579C12.5391 2.71071 12.0304 2.5 11.5 2.5ZM3.5 11.5V8H12.5V11.5H3.5ZM3.5 5.5H12.5V7H3.5V5.5ZM4.5 3.5H11.5C11.7652 3.5 12.0196 3.60536 12.2071 3.79289C12.3946 3.98043 12.5 4.23478 12.5 4.5H3.5C3.5 4.23478 3.60536 3.98043 3.79289 3.79289C3.98043 3.60536 4.23478 3.5 4.5 3.5ZM5 13.5H3.5V12.5H5V13.5ZM11 13.5V12.5H12.5V13.5H11ZM6.5 9.75C6.5 9.89834 6.45601 10.0433 6.3736 10.1667C6.29119 10.29 6.17406 10.3861 6.03701 10.4429C5.89997 10.4997 5.74917 10.5145 5.60368 10.4856C5.4582 10.4567 5.32456 10.3852 5.21967 10.2803C5.11478 10.1754 5.04335 10.0418 5.01441 9.89632C4.98547 9.75083 5.00032 9.60003 5.05709 9.46299C5.11386 9.32594 5.20999 9.20881 5.33332 9.1264C5.45666 9.04399 5.60166 9 5.75 9C5.94891 9 6.13968 9.07902 6.28033 9.21967C6.42098 9.36032 6.5 9.55109 6.5 9.75ZM11 9.75C11 9.89834 10.956 10.0433 10.8736 10.1667C10.7912 10.29 10.6741 10.3861 10.537 10.4429C10.4 10.4997 10.2492 10.5145 10.1037 10.4856C9.9582 10.4567 9.82456 10.3852 9.71967 10.2803C9.61478 10.1754 9.54335 10.0418 9.51441 9.89632C9.48547 9.75083 9.50033 9.60003 9.55709 9.46299C9.61386 9.32594 9.70999 9.20881 9.83332 9.1264C9.95666 9.04399 10.1017 9 10.25 9C10.4489 9 10.6397 9.07902 10.7803 9.21967C10.921 9.36032 11 9.55109 11 9.75ZM15.5 5.5V7C15.5 7.13261 15.4473 7.25979 15.3536 7.35355C15.2598 7.44732 15.1326 7.5 15 7.5C14.8674 7.5 14.7402 7.44732 14.6464 7.35355C14.5527 7.25979 14.5 7.13261 14.5 7V5.5C14.5 5.36739 14.5527 5.24021 14.6464 5.14645C14.7402 5.05268 14.8674 5 15 5C15.1326 5 15.2598 5.05268 15.3536 5.14645C15.4473 5.24021 15.5 5.36739 15.5 5.5ZM1.5 5.5V7C1.5 7.13261 1.44732 7.25979 1.35355 7.35355C1.25979 7.44732 1.13261 7.5 1 7.5C0.867392 7.5 0.740215 7.44732 0.646447 7.35355C0.552678 7.25979 0.5 7.13261 0.5 7V5.5C0.5 5.36739 0.552678 5.24021 0.646447 5.14645C0.740215 5.05268 0.867392 5 1 5C1.13261 5 1.25979 5.05268 1.35355 5.14645C1.44732 5.24021 1.5 5.36739 1.5 5.5Z" fill="black"/>
</svg>
