<svg width="46" height="45" viewBox="0 0 46 45" fill="none" xmlns="http://www.w3.org/2000/svg">
<rect x="0.5" width="40" height="40" rx="4.8" fill="#0279FC" fill-opacity="0.3"/>
<g clip-path="url(#clip0_78_27528)">
<path d="M11.7001 16.8C11.7001 13.7072 14.2073 11.2 17.3001 11.2H36.9001C39.9929 11.2 42.5001 13.7072 42.5001 16.8V42C42.5001 43.5463 41.2465 44.7999 39.7001 44.7999H14.5001C12.9537 44.7999 11.7001 43.5463 11.7001 42V16.8Z" fill="#07478E"/>
</g>
<g clip-path="url(#clip1_78_27528)">
<path d="M32.7001 16.8C32.7001 13.7072 35.2073 11.2 38.3001 11.2H57.9001C60.9929 11.2 63.5001 13.7072 63.5001 16.8V42C63.5001 43.5463 62.2465 44.7999 60.7001 44.7999H35.5001C33.9537 44.7999 32.7001 43.5463 32.7001 42V16.8Z" fill="#07478E"/>
</g>
<g clip-path="url(#clip2_78_27528)">
<rect width="25.6" height="25.6" transform="translate(17.3 12.7999)" fill="white"/>
<path d="M15.9 18.2C15.9 15.1072 18.4072 12.6 21.5 12.6H41.1C44.1928 12.6 46.7 15.1072 46.7 18.2V43.4C46.7 44.9464 45.4464 46.2 43.9 46.2H18.7C17.1536 46.2 15.9 44.9464 15.9 43.4V18.2Z" fill="#FFD145"/>
</g>
<path d="M15.9 37.8H22.9V42C22.9 42.3713 22.7525 42.7274 22.49 42.9899C22.2274 43.2525 21.8713 43.4 21.5 43.4H17.3C16.9287 43.4 16.5726 43.2525 16.3101 42.9899C16.0475 42.7274 15.9 42.3713 15.9 42V37.8ZM36.9 42C36.9 42.3713 37.0475 42.7274 37.3101 42.9899C37.5726 43.2525 37.9287 43.4 38.3 43.4H42.5C42.8713 43.4 43.2274 43.2525 43.49 42.9899C43.7525 42.7274 43.9 42.3713 43.9 42V37.8H36.9V42ZM15.9 18.2V25.2H43.9V18.2H15.9Z" fill="#FFD145"/>
<path d="M39.7 11.2H20.1C18.6148 11.2 17.1904 11.7899 16.1402 12.8402C15.09 13.8904 14.5 15.3147 14.5 16.8V41.9999C14.5 42.7426 14.795 43.4547 15.3201 43.9798C15.8452 44.5049 16.5574 44.7999 17.3 44.7999H21.5C22.2426 44.7999 22.9548 44.5049 23.4799 43.9798C24.005 43.4547 24.3 42.7426 24.3 41.9999V39.1999H35.5V41.9999C35.5 42.7426 35.795 43.4547 36.3201 43.9798C36.8452 44.5049 37.5574 44.7999 38.3 44.7999H42.5C43.2426 44.7999 43.9548 44.5049 44.4799 43.9798C45.005 43.4547 45.3 42.7426 45.3 41.9999V16.8C45.3 15.3147 44.71 13.8904 43.6598 12.8402C42.6096 11.7899 41.1852 11.2 39.7 11.2ZM17.3 36.4V26.5999H42.5V36.4H17.3ZM17.3 19.6H42.5V23.8H17.3V19.6ZM20.1 14H39.7C40.4426 14 41.1548 14.295 41.6799 14.8201C42.205 15.3452 42.5 16.0573 42.5 16.8H17.3C17.3 16.0573 17.595 15.3452 18.1201 14.8201C18.6452 14.295 19.3574 14 20.1 14ZM21.5 41.9999H17.3V39.1999H21.5V41.9999ZM38.3 41.9999V39.1999H42.5V41.9999H38.3ZM25.7 31.5C25.7 31.9153 25.5768 32.3213 25.3461 32.6666C25.1153 33.012 24.7874 33.2812 24.4036 33.4401C24.0199 33.599 23.5977 33.6406 23.1903 33.5596C22.7829 33.4786 22.4088 33.2786 22.1151 32.9849C21.8214 32.6912 21.6214 32.317 21.5403 31.9096C21.4593 31.5023 21.5009 31.08 21.6599 30.6963C21.8188 30.3126 22.088 29.9846 22.4333 29.7539C22.7786 29.5231 23.1847 29.4 23.6 29.4C24.157 29.4 24.6911 29.6212 25.0849 30.015C25.4787 30.4089 25.7 30.943 25.7 31.5ZM38.3 31.5C38.3 31.9153 38.1768 32.3213 37.9461 32.6666C37.7153 33.012 37.3874 33.2812 37.0036 33.4401C36.6199 33.599 36.1977 33.6406 35.7903 33.5596C35.3829 33.4786 35.0088 33.2786 34.7151 32.9849C34.4214 32.6912 34.2214 32.317 34.1403 31.9096C34.0593 31.5023 34.1009 31.08 34.2599 30.6963C34.4188 30.3126 34.688 29.9846 35.0333 29.7539C35.3786 29.5231 35.7847 29.4 36.2 29.4C36.757 29.4 37.2911 29.6212 37.6849 30.015C38.0787 30.4089 38.3 30.943 38.3 31.5Z" fill="#0279FC"/>
<defs>
<clipPath id="clip0_78_27528">
<rect width="8.4" height="33.6" fill="white" transform="translate(11.7001 11.2)"/>
</clipPath>
<clipPath id="clip1_78_27528">
<rect width="8.4" height="7" fill="white" transform="translate(32.7001 37.7999)"/>
</clipPath>
<clipPath id="clip2_78_27528">
<rect width="25.6" height="25.6" fill="white" transform="translate(17.3 12.7999)"/>
</clipPath>
</defs>
</svg>
