<svg width="48" height="44" viewBox="0 0 48 44" fill="none" xmlns="http://www.w3.org/2000/svg">
<rect width="40" height="40" rx="4.8" fill="#0279FC" fill-opacity="0.3"/>
<path d="M13.752 40.125H47.3353V42.7083C47.3353 43.4217 46.757 44 46.0436 44H13.752V40.125Z" fill="#07478E"/>
<path d="M11.1686 14.2917C11.1686 13.5783 11.7469 13 12.4602 13H15.0436V44H12.4602C11.7469 44 11.1686 43.4217 11.1686 42.7083V14.2917Z" fill="#07478E"/>
<path d="M46.0436 15.5834V40.125H15.0436V14.2917H44.7519C45.0945 14.2917 45.423 14.4278 45.6653 14.67C45.9075 14.9122 46.0436 15.2408 46.0436 15.5834Z" fill="#FFD145"/>
<path d="M16.3352 33.6667L25.3769 25.9167L35.7102 33.6667L46.6894 23.9792" stroke="#07478E" stroke-width="2.45417" stroke-linecap="round" stroke-linejoin="round"/>
<path d="M47.3353 40.125C47.3353 40.4676 47.1992 40.7961 46.957 41.0383C46.7147 41.2806 46.3862 41.4167 46.0436 41.4167H15.0436C14.701 41.4167 14.3725 41.2806 14.1303 41.0383C13.888 40.7961 13.752 40.4676 13.752 40.125V14.2917C13.752 13.9491 13.888 13.6206 14.1303 13.3783C14.3725 13.1361 14.701 13 15.0436 13C15.3862 13 15.7147 13.1361 15.957 13.3783C16.1992 13.6206 16.3353 13.9491 16.3353 14.2917V29.5285L24.5261 22.3646C24.749 22.1695 25.0321 22.0569 25.3281 22.0457C25.6241 22.0346 25.915 22.1255 26.152 22.3032L35.6473 29.4252L45.1927 21.0729C45.3179 20.949 45.4671 20.852 45.6311 20.7879C45.7951 20.7238 45.9705 20.6939 46.1465 20.7C46.3225 20.7062 46.4954 20.7482 46.6545 20.8236C46.8136 20.899 46.9557 21.0062 47.0719 21.1385C47.1881 21.2708 47.2761 21.4255 47.3303 21.593C47.3845 21.7606 47.404 21.9374 47.3873 22.1128C47.3707 22.2881 47.3184 22.4581 47.2337 22.6125C47.1489 22.7669 47.0335 22.9023 46.8945 23.0104L36.5612 32.0521C36.3383 32.2472 36.0551 32.3598 35.7591 32.3709C35.4631 32.3821 35.1722 32.2912 34.9353 32.1134L25.4399 24.9947L16.3353 32.9611V38.8333H46.0436C46.3862 38.8333 46.7147 38.9694 46.957 39.2117C47.1992 39.4539 47.3353 39.7824 47.3353 40.125Z" fill="#0279FC"/>
</svg>
