<svg width="74" height="56" viewBox="0 0 74 56" fill="none" xmlns="http://www.w3.org/2000/svg">
<rect width="56" height="56" rx="6.22222" fill="#0279FC" fill-opacity="0.2"/>
<path d="M65.976 33.9952H59.4041L49.4832 24.0743C49.1441 23.7325 48.7404 23.4615 48.2957 23.2771C47.8509 23.0927 47.3739 22.9985 46.8925 23H21.1431C20.5411 23.0011 19.9486 23.1505 19.4181 23.435C18.8875 23.7194 18.4352 24.1302 18.1011 24.631L11.3069 34.8107C11.1073 35.1124 11.0006 35.466 11 35.8278V46.823C11 47.795 11.3861 48.7272 12.0735 49.4146C12.7608 50.1019 13.693 50.488 14.6651 50.488H18.5592C18.9629 52.0648 19.8799 53.4623 21.1656 54.4603C22.4514 55.4583 24.0327 56 25.6603 56C27.2879 56 28.8692 55.4583 30.1549 54.4603C31.4406 53.4623 32.3576 52.0648 32.7613 50.488H47.8797C48.2835 52.0648 49.2005 53.4623 50.4862 54.4603C51.7719 55.4583 53.3532 56 54.9808 56C56.6084 56 58.1897 55.4583 59.4754 54.4603C60.7612 53.4623 61.6782 52.0648 62.0819 50.488H65.976C66.9481 50.488 67.8803 50.1019 68.5676 49.4146C69.2549 48.7272 69.6411 47.795 69.6411 46.823V37.6603C69.6411 36.6883 69.2549 35.756 68.5676 35.0687C67.8803 34.3814 66.9481 33.9952 65.976 33.9952ZM21.1431 26.6651H46.8925L54.2226 33.9952H16.2685L21.1431 26.6651ZM25.6603 52.3206C24.9354 52.3206 24.2268 52.1056 23.6241 51.7029C23.0214 51.3002 22.5516 50.7278 22.2742 50.0581C21.9968 49.3884 21.9242 48.6514 22.0656 47.9405C22.207 47.2295 22.5561 46.5765 23.0687 46.0639C23.5812 45.5513 24.2343 45.2023 24.9453 45.0608C25.6562 44.9194 26.3931 44.992 27.0628 45.2694C27.7325 45.5468 28.3049 46.0166 28.7077 46.6193C29.1104 47.222 29.3253 47.9306 29.3253 48.6555C29.3253 49.6275 28.9392 50.5598 28.2519 51.2471C27.5645 51.9344 26.6323 52.3206 25.6603 52.3206ZM54.9808 52.3206C54.2559 52.3206 53.5473 52.1056 52.9446 51.7029C52.3419 51.3002 51.8721 50.7278 51.5947 50.0581C51.3173 49.3884 51.2448 48.6514 51.3862 47.9405C51.5276 47.2295 51.8766 46.5765 52.3892 46.0639C52.9018 45.5513 53.5548 45.2023 54.2658 45.0608C54.9767 44.9194 55.7137 44.992 56.3834 45.2694C57.0531 45.5468 57.6255 46.0166 58.0282 46.6193C58.4309 47.222 58.6459 47.9306 58.6459 48.6555C58.6459 49.6275 58.2597 50.5598 57.5724 51.2471C56.8851 51.9344 55.9529 52.3206 54.9808 52.3206ZM65.976 46.823H62.0819C61.6782 45.2462 60.7612 43.8487 59.4754 42.8507C58.1897 41.8527 56.6084 41.311 54.9808 41.311C53.3532 41.311 51.7719 41.8527 50.4862 42.8507C49.2005 43.8487 48.2835 45.2462 47.8797 46.823H32.7613C32.3576 45.2462 31.4406 43.8487 30.1549 42.8507C28.8692 41.8527 27.2879 41.311 25.6603 41.311C24.0327 41.311 22.4514 41.8527 21.1656 42.8507C19.8799 43.8487 18.9629 45.2462 18.5592 46.823H14.6651V37.6603H65.976V46.823Z" fill="#07478E"/>
<rect x="18.3298" y="37.6603" width="51.3109" height="9.16267" fill="#FFD145"/>
<path d="M34.8231 48.6555C34.8231 49.7428 34.5007 50.8057 33.8966 51.7098C33.2925 52.6138 32.4339 53.3185 31.4294 53.7346C30.4248 54.1507 29.3194 54.2596 28.253 54.0474C27.1866 53.8353 26.207 53.3117 25.4381 52.5429C24.6693 51.774 24.1457 50.7944 23.9336 49.728C23.7214 48.6616 23.8303 47.5562 24.2464 46.5516C24.6625 45.5471 25.3672 44.6885 26.2712 44.0844C27.1753 43.4803 28.2382 43.1579 29.3255 43.1579C30.7836 43.1579 32.1819 43.7371 33.2129 44.7681C34.2439 45.7991 34.8231 47.1974 34.8231 48.6555ZM58.6461 43.1579C57.5588 43.1579 56.4959 43.4803 55.5918 44.0844C54.6877 44.6885 53.9831 45.5471 53.567 46.5516C53.1509 47.5562 53.042 48.6616 53.2541 49.728C53.4662 50.7944 53.9898 51.774 54.7587 52.5429C55.5275 53.3117 56.5071 53.8353 57.5736 54.0474C58.64 54.2596 59.7454 54.1507 60.7499 53.7346C61.7545 53.3185 62.6131 52.6138 63.2172 51.7098C63.8213 50.8057 64.1437 49.7428 64.1437 48.6555C64.1437 47.1974 63.5645 45.7991 62.5335 44.7681C61.5025 43.7371 60.1041 43.1579 58.6461 43.1579ZM51.852 25.3685C51.5086 25.0255 51.0431 24.8327 50.5577 24.8325H24.8083C24.5066 24.8323 24.2094 24.9067 23.9433 25.0489C23.6771 25.1912 23.4502 25.397 23.2828 25.648L16.4978 35.8277H62.3112L51.852 25.3685Z" fill="#FFD145"/>
<path d="M69.6411 33.9952H63.0691L53.1483 24.0743C52.8092 23.7325 52.4055 23.4615 51.9607 23.2771C51.516 23.0927 51.039 22.9985 50.5575 23H24.8081C24.2061 23.0011 23.6137 23.1505 23.0831 23.435C22.5525 23.7194 22.1002 24.1302 21.7661 24.631L14.972 34.8107C14.7724 35.1124 14.6656 35.466 14.665 35.8278V46.823C14.665 47.795 15.0512 48.7272 15.7385 49.4146C16.4258 50.1019 17.3581 50.488 18.3301 50.488H22.2242C22.628 52.0648 23.545 53.4623 24.8307 54.4603C26.1164 55.4583 27.6977 56 29.3253 56C30.9529 56 32.5342 55.4583 33.8199 54.4603C35.1057 53.4623 36.0227 52.0648 36.4264 50.488H51.5448C51.9485 52.0648 52.8655 53.4623 54.1512 54.4603C55.4369 55.4583 57.0182 56 58.6459 56C60.2735 56 61.8548 55.4583 63.1405 54.4603C64.4262 53.4623 65.3432 52.0648 65.7469 50.488H69.6411C70.6131 50.488 71.5453 50.1019 72.2326 49.4146C72.92 48.7272 73.3061 47.795 73.3061 46.823V37.6603C73.3061 36.6883 72.92 35.756 72.2326 35.0687C71.5453 34.3814 70.6131 33.9952 69.6411 33.9952ZM24.8081 26.6651H50.5575L57.8876 33.9952H19.9336L24.8081 26.6651ZM29.3253 52.3206C28.6004 52.3206 27.8918 52.1056 27.2891 51.7029C26.6864 51.3002 26.2166 50.7278 25.9392 50.0581C25.6618 49.3884 25.5892 48.6514 25.7307 47.9405C25.8721 47.2295 26.2211 46.5765 26.7337 46.0639C27.2463 45.5513 27.8993 45.2023 28.6103 45.0608C29.3212 44.9194 30.0582 44.992 30.7279 45.2694C31.3976 45.5468 31.97 46.0166 32.3727 46.6193C32.7754 47.222 32.9904 47.9306 32.9904 48.6555C32.9904 49.6275 32.6042 50.5598 31.9169 51.2471C31.2296 51.9344 30.2973 52.3206 29.3253 52.3206ZM58.6459 52.3206C57.921 52.3206 57.2124 52.1056 56.6096 51.7029C56.0069 51.3002 55.5372 50.7278 55.2598 50.0581C54.9824 49.3884 54.9098 48.6514 55.0512 47.9405C55.1926 47.2295 55.5417 46.5765 56.0543 46.0639C56.5668 45.5513 57.2199 45.2023 57.9308 45.0608C58.6418 44.9194 59.3787 44.992 60.0484 45.2694C60.7181 45.5468 61.2905 46.0166 61.6932 46.6193C62.096 47.222 62.3109 47.9306 62.3109 48.6555C62.3109 49.6275 61.9248 50.5598 61.2374 51.2471C60.5501 51.9344 59.6179 52.3206 58.6459 52.3206ZM69.6411 46.823H65.7469C65.3432 45.2462 64.4262 43.8487 63.1405 42.8507C61.8548 41.8527 60.2735 41.311 58.6459 41.311C57.0182 41.311 55.4369 41.8527 54.1512 42.8507C52.8655 43.8487 51.9485 45.2462 51.5448 46.823H36.4264C36.0227 45.2462 35.1057 43.8487 33.8199 42.8507C32.5342 41.8527 30.9529 41.311 29.3253 41.311C27.6977 41.311 26.1164 41.8527 24.8307 42.8507C23.545 43.8487 22.628 45.2462 22.2242 46.823H18.3301V37.6603H69.6411V46.823Z" fill="#0279FC"/>
</svg>
