<svg width="50" height="45" viewBox="0 0 50 45" fill="none" xmlns="http://www.w3.org/2000/svg">
<rect width="40" height="40" rx="4.8" fill="#0279FC" fill-opacity="0.3"/>
<path d="M45.5326 42.1304H44.0979V13.4348C44.0979 13.0543 43.9467 12.6893 43.6776 12.4202C43.4086 12.1512 43.0436 12 42.6631 12H32.6196C32.2391 12 31.8741 12.1512 31.6051 12.4202C31.336 12.6893 31.1848 13.0543 31.1848 13.4348V20.6087H22.5761C22.1956 20.6087 21.8307 20.7599 21.5616 21.0289C21.2925 21.298 21.1413 21.663 21.1413 22.0435V29.2174H13.9674C13.5869 29.2174 13.222 29.3686 12.9529 29.6376C12.6838 29.9067 12.5327 30.2716 12.5327 30.6522V42.1304H11.0979C10.7173 42.1304 10.3524 42.2816 10.0833 42.5507C9.81425 42.8197 9.66309 43.1847 9.66309 43.5652C9.66309 43.9457 9.81425 44.3107 10.0833 44.5798C10.3524 44.8488 10.7173 45 11.0979 45H45.5326C45.9132 45 46.2781 44.8488 46.5472 44.5798C46.8163 44.3107 46.9674 43.9457 46.9674 43.5652C46.9674 43.1847 46.8163 42.8197 46.5472 42.5507C46.2781 42.2816 45.9132 42.1304 45.5326 42.1304ZM34.0544 14.8696H41.2283V42.1304H34.0544V14.8696ZM24.0109 23.4783H31.1848V42.1304H24.0109V23.4783ZM15.4022 32.087H21.1413V42.1304H15.4022V32.087Z" fill="#07478E"/>
<rect x="26.8805" y="23.4783" width="7.17391" height="20.087" fill="#FFD145"/>
<rect x="18.2717" y="29.2174" width="5.73913" height="12.913" fill="#FFD145"/>
<path d="M45.5326 13.4348V43.5653H35.4891V13.4348H45.5326Z" fill="#FFD145"/>
<path d="M48.4022 42.1304H46.9674V13.4348C46.9674 13.0543 46.8162 12.6893 46.5471 12.4202C46.2781 12.1512 45.9131 12 45.5326 12H35.4891C35.1086 12 34.7436 12.1512 34.4746 12.4202C34.2055 12.6893 34.0543 13.0543 34.0543 13.4348V20.6087H25.4456C25.0651 20.6087 24.7002 20.7599 24.4311 21.0289C24.162 21.298 24.0109 21.663 24.0109 22.0435V29.2174H16.8369C16.4564 29.2174 16.0915 29.3686 15.8224 29.6376C15.5533 29.9067 15.4022 30.2716 15.4022 30.6522V42.1304H13.9674C13.5868 42.1304 13.2219 42.2816 12.9528 42.5507C12.6838 42.8197 12.5326 43.1847 12.5326 43.5652C12.5326 43.9457 12.6838 44.3107 12.9528 44.5798C13.2219 44.8488 13.5868 45 13.9674 45H48.4022C48.7827 45 49.1476 44.8488 49.4167 44.5798C49.6858 44.3107 49.8369 43.9457 49.8369 43.5652C49.8369 43.1847 49.6858 42.8197 49.4167 42.5507C49.1476 42.2816 48.7827 42.1304 48.4022 42.1304ZM36.9239 14.8696H44.0978V42.1304H36.9239V14.8696ZM26.8804 23.4783H34.0543V42.1304H26.8804V23.4783ZM18.2717 32.087H24.0109V42.1304H18.2717V32.087Z" fill="#0279FC"/>
</svg>
