<svg width="18" height="18" viewBox="0 0 18 18" fill="none" xmlns="http://www.w3.org/2000/svg">
<path d="M12.7729 9.39792L7.14792 15.0229C7.09565 15.0752 7.03361 15.1166 6.96533 15.1449C6.89704 15.1732 6.82386 15.1878 6.74995 15.1878C6.67604 15.1878 6.60285 15.1732 6.53457 15.1449C6.46628 15.1166 6.40424 15.0752 6.35198 15.0229C6.29972 14.9707 6.25826 14.9086 6.22998 14.8403C6.20169 14.772 6.18713 14.6989 6.18713 14.6249C6.18713 14.551 6.20169 14.4779 6.22998 14.4096C6.25826 14.3413 6.29972 14.2792 6.35198 14.227L11.5797 8.99995L6.35198 3.77292C6.24643 3.66737 6.18713 3.52421 6.18713 3.37495C6.18713 3.22568 6.24643 3.08253 6.35198 2.97698C6.45753 2.87143 6.60068 2.81213 6.74995 2.81213C6.89921 2.81213 7.04237 2.87143 7.14792 2.97698L12.7729 8.60198C12.8252 8.65422 12.8667 8.71626 12.895 8.78454C12.9233 8.85283 12.9379 8.92603 12.9379 8.99995C12.9379 9.07387 12.9233 9.14706 12.895 9.21535C12.8667 9.28364 12.8252 9.34567 12.7729 9.39792Z" fill="#0279FC"/>
</svg>
