<svg width="20" height="20" viewBox="0 0 20 20" fill="none" xmlns="http://www.w3.org/2000/svg">
<path d="M14.1922 10.442L7.9422 16.692C7.88413 16.7501 7.81519 16.7962 7.73932 16.8276C7.66345 16.859 7.58213 16.8752 7.50001 16.8752C7.41789 16.8752 7.33657 16.859 7.2607 16.8276C7.18483 16.7962 7.11589 16.7501 7.05782 16.692C6.99976 16.634 6.95369 16.565 6.92227 16.4892C6.89084 16.4133 6.87466 16.332 6.87466 16.2499C6.87466 16.1677 6.89084 16.0864 6.92227 16.0105C6.95369 15.9347 6.99976 15.8657 7.05782 15.8077L12.8664 9.99986L7.05782 4.19205C6.94055 4.07477 6.87466 3.91571 6.87466 3.74986C6.87466 3.58401 6.94055 3.42495 7.05782 3.30767C7.1751 3.1904 7.33416 3.12451 7.50001 3.12451C7.66586 3.12451 7.82492 3.1904 7.9422 3.30767L14.1922 9.55767C14.2503 9.61572 14.2964 9.68465 14.3279 9.76052C14.3593 9.8364 14.3755 9.91772 14.3755 9.99986C14.3755 10.082 14.3593 10.1633 14.3279 10.2392C14.2964 10.3151 14.2503 10.384 14.1922 10.442Z" fill="#343330"/>
</svg>
