<svg width="22" height="22" viewBox="0 0 22 22" fill="none" xmlns="http://www.w3.org/2000/svg">
<path d="M4.125 4.8125V17.1875C4.125 17.3698 4.05257 17.5447 3.92364 17.6736C3.7947 17.8026 3.61984 17.875 3.4375 17.875C3.25516 17.875 3.0803 17.8026 2.95136 17.6736C2.82243 17.5447 2.75 17.3698 2.75 17.1875V4.8125C2.75 4.63016 2.82243 4.4553 2.95136 4.32636C3.0803 4.19743 3.25516 4.125 3.4375 4.125C3.61984 4.125 3.7947 4.19743 3.92364 4.32636C4.05257 4.4553 4.125 4.63016 4.125 4.8125ZM11.3438 9.49609L9.625 10.0547V8.25C9.625 8.06766 9.55257 7.8928 9.42364 7.76386C9.2947 7.63493 9.11984 7.5625 8.9375 7.5625C8.75516 7.5625 8.5803 7.63493 8.45136 7.76386C8.32243 7.8928 8.25 8.06766 8.25 8.25V10.0547L6.53125 9.49609C6.3578 9.43911 6.16882 9.45337 6.00589 9.53572C5.84295 9.61808 5.7194 9.76179 5.66242 9.93523C5.60544 10.1087 5.6197 10.2977 5.70205 10.4606C5.78441 10.6235 5.92812 10.7471 6.10156 10.8041L7.82031 11.3618L6.75984 12.8227C6.7038 12.8956 6.66292 12.9789 6.63963 13.0677C6.61633 13.1566 6.61109 13.2493 6.62421 13.3402C6.63734 13.4312 6.66856 13.5186 6.71603 13.5972C6.7635 13.6759 6.82626 13.7443 6.90061 13.7983C6.97495 13.8523 7.05936 13.8908 7.14886 13.9117C7.23835 13.9325 7.33111 13.9352 7.42166 13.9195C7.51221 13.9039 7.5987 13.8703 7.67603 13.8206C7.75336 13.771 7.81995 13.7064 7.87187 13.6305L8.93234 12.1696L9.99281 13.6305C10.0447 13.7064 10.1113 13.771 10.1887 13.8206C10.266 13.8703 10.3525 13.9039 10.443 13.9195C10.5336 13.9352 10.6263 13.9325 10.7158 13.9117C10.8053 13.8908 10.8897 13.8523 10.9641 13.7983C11.0384 13.7443 11.1012 13.6759 11.1487 13.5972C11.1961 13.5186 11.2274 13.4312 11.2405 13.3402C11.2536 13.2493 11.2484 13.1566 11.2251 13.0677C11.2018 12.9789 11.1609 12.8956 11.1048 12.8227L10.0444 11.3618L11.7631 10.8041C11.9289 10.7424 12.0646 10.6192 12.1418 10.4601C12.2191 10.301 12.2321 10.1182 12.1781 9.94979C12.1241 9.78135 12.0073 9.64021 11.8519 9.55571C11.6965 9.47121 11.5145 9.44986 11.3438 9.49609ZM20.4531 9.93781C20.3968 9.76595 20.275 9.62321 20.1141 9.54052C19.9533 9.45784 19.7663 9.44188 19.5938 9.49609L17.875 10.0547V8.25C17.875 8.06766 17.8026 7.8928 17.6736 7.76386C17.5447 7.63493 17.3698 7.5625 17.1875 7.5625C17.0052 7.5625 16.8303 7.63493 16.7014 7.76386C16.5724 7.8928 16.5 8.06766 16.5 8.25V10.0547L14.7812 9.49695C14.6954 9.46902 14.6048 9.45828 14.5148 9.46534C14.4248 9.4724 14.337 9.49713 14.2565 9.5381C14.176 9.57908 14.1044 9.63551 14.0457 9.70416C13.9871 9.77282 13.9425 9.85236 13.9146 9.93824C13.8866 10.0241 13.8759 10.1147 13.883 10.2047C13.89 10.2947 13.9147 10.3825 13.9557 10.463C13.9967 10.5435 14.0531 10.6151 14.1218 10.6737C14.1904 10.7324 14.27 10.777 14.3559 10.8049L16.0746 11.3627L15.0141 12.8236C14.9581 12.8964 14.9172 12.9797 14.8939 13.0686C14.8706 13.1575 14.8654 13.2501 14.8785 13.3411C14.8916 13.432 14.9229 13.5194 14.9703 13.5981C15.0178 13.6768 15.0806 13.7451 15.1549 13.7991C15.2292 13.8531 15.3137 13.8917 15.4032 13.9125C15.4926 13.9333 15.5854 13.936 15.676 13.9204C15.7665 13.9047 15.853 13.8711 15.9303 13.8215C16.0077 13.7718 16.0742 13.7072 16.1262 13.6314L17.1866 12.1705L18.2471 13.6314C18.299 13.7072 18.3656 13.7718 18.443 13.8215C18.5203 13.8711 18.6068 13.9047 18.6973 13.9204C18.7879 13.936 18.8806 13.9333 18.9701 13.9125C19.0596 13.8917 19.144 13.8531 19.2184 13.7991C19.2927 13.7451 19.3555 13.6768 19.403 13.5981C19.4504 13.5194 19.4816 13.432 19.4948 13.3411C19.5079 13.2501 19.5027 13.1575 19.4794 13.0686C19.4561 12.9797 19.4152 12.8964 19.3591 12.8236L18.2987 11.3627L20.0174 10.8049C20.19 10.7474 20.3327 10.6239 20.4144 10.4614C20.496 10.2988 20.51 10.1106 20.4531 9.93781Z" fill="#343330"/>
</svg>
