<svg width="20" height="20" viewBox="0 0 20 20" fill="none" xmlns="http://www.w3.org/2000/svg">
<path d="M17.8125 13.6719C17.7411 13.7126 17.6624 13.7388 17.5809 13.7491C17.4994 13.7593 17.4166 13.7534 17.3374 13.7316C17.2581 13.7098 17.1839 13.6727 17.1191 13.6222C17.0542 13.5717 17 13.509 16.9594 13.4375L15.475 10.8437C14.612 11.4272 13.6601 11.8668 12.6563 12.1453L13.1149 14.8969C13.1284 14.9779 13.1258 15.0607 13.1073 15.1408C13.0888 15.2208 13.0547 15.2963 13.007 15.3632C12.9592 15.43 12.8988 15.4868 12.8291 15.5302C12.7594 15.5737 12.6818 15.6029 12.6008 15.6164C12.5675 15.6219 12.5338 15.6247 12.5 15.625C12.3522 15.6248 12.2092 15.5721 12.0965 15.4764C11.9837 15.3808 11.9086 15.2482 11.8844 15.1023L11.4336 12.4008C10.483 12.5331 9.51862 12.5331 8.56799 12.4008L8.11721 15.1023C8.09295 15.2485 8.01759 15.3812 7.90455 15.4769C7.79151 15.5727 7.64815 15.6251 7.50002 15.625C7.46547 15.6248 7.43099 15.622 7.3969 15.6164C7.31588 15.6029 7.23831 15.5737 7.16862 15.5302C7.09893 15.4868 7.03849 15.43 6.99075 15.3632C6.943 15.2963 6.9089 15.2208 6.89038 15.1408C6.87187 15.0607 6.8693 14.9779 6.88283 14.8969L7.34377 12.1453C6.34036 11.8659 5.38893 11.4256 4.52658 10.8414L3.0469 13.4375C2.96402 13.5819 2.82716 13.6875 2.66644 13.731C2.50571 13.7745 2.33428 13.7524 2.18987 13.6695C2.04545 13.5866 1.93987 13.4498 1.89635 13.2891C1.85284 13.1283 1.87495 12.9569 1.95783 12.8125L3.52033 10.0781C2.97151 9.60396 2.46683 9.08098 2.01252 8.51562C1.95586 8.45236 1.91269 8.37822 1.88564 8.29772C1.85859 8.21722 1.84823 8.13205 1.85519 8.04742C1.86215 7.96278 1.88629 7.88045 1.92612 7.80545C1.96596 7.73045 2.02066 7.66436 2.08689 7.61121C2.15312 7.55805 2.22949 7.51895 2.31133 7.4963C2.39318 7.47364 2.47878 7.4679 2.56291 7.47942C2.64705 7.49095 2.72795 7.5195 2.80069 7.56333C2.87342 7.60717 2.93646 7.66536 2.98596 7.73437C4.28283 9.33906 6.55158 11.25 10 11.25C13.4485 11.25 15.7172 9.33671 17.0141 7.73437C17.063 7.66395 17.1259 7.60435 17.1989 7.55928C17.2718 7.51422 17.3533 7.48464 17.4381 7.4724C17.523 7.46016 17.6095 7.46552 17.6922 7.48814C17.7749 7.51076 17.8521 7.55015 17.9189 7.60388C17.9858 7.6576 18.0408 7.72451 18.0807 7.80043C18.1206 7.87634 18.1444 7.95966 18.1507 8.04517C18.1569 8.13069 18.1456 8.21659 18.1172 8.29753C18.0889 8.37846 18.0442 8.4527 17.986 8.51562C17.5316 9.08098 17.027 9.60396 16.4781 10.0781L18.0406 12.8125C18.0826 12.8838 18.11 12.9627 18.1212 13.0446C18.1324 13.1265 18.1273 13.2099 18.1061 13.2898C18.0849 13.3698 18.048 13.4447 17.9976 13.5103C17.9472 13.5758 17.8843 13.6308 17.8125 13.6719Z" fill="#808080"/>
</svg>
