<svg width="15" height="16" viewBox="0 0 15 16" fill="none" xmlns="http://www.w3.org/2000/svg">
<path d="M9.84385 4.95324C9.84385 5.0923 9.80261 5.22824 9.72535 5.34387C9.64809 5.4595 9.53828 5.54962 9.4098 5.60284C9.28132 5.65606 9.13995 5.66998 9.00355 5.64285C8.86716 5.61572 8.74188 5.54876 8.64354 5.45042C8.54521 5.35209 8.47824 5.2268 8.45111 5.09041C8.42398 4.95402 8.43791 4.81264 8.49112 4.68416C8.54434 4.55568 8.63446 4.44587 8.75009 4.36861C8.86572 4.29135 9.00166 4.25011 9.14073 4.25011C9.32721 4.25011 9.50605 4.32419 9.63791 4.45605C9.76977 4.58791 9.84385 4.76676 9.84385 4.95324ZM11.6919 10.2718C10.1063 11.8538 7.62432 12.5189 4.29033 12.261C4.38369 12.9579 4.51455 13.6917 4.68291 14.4624C4.70939 14.5839 4.68655 14.7108 4.61941 14.8155C4.55228 14.9201 4.44634 14.9937 4.3249 15.0202C4.29183 15.0277 4.25803 15.0314 4.22412 15.0314C4.11736 15.0312 4.01387 14.9945 3.93076 14.9275C3.84765 14.8605 3.78991 14.7671 3.76709 14.6628C3.5753 13.7866 3.43096 12.9538 3.33408 12.1644C2.54502 12.0671 1.7128 11.9228 0.837405 11.7314C0.716501 11.7043 0.611246 11.6304 0.544652 11.5259C0.478058 11.4214 0.455542 11.2948 0.482027 11.1738C0.508512 11.0527 0.581843 10.9471 0.685989 10.88C0.790134 10.8128 0.916621 10.7897 1.0378 10.8155C1.80772 10.9835 2.54092 11.1144 3.23741 11.2081C2.98018 7.87472 3.64756 5.39328 5.22959 3.80831C7.79307 1.23722 11.8612 1.9591 12.6505 2.13019C12.8267 2.1686 12.9883 2.25683 13.1158 2.38439C13.2434 2.51195 13.3316 2.67346 13.37 2.84972C13.5411 3.63898 14.2636 7.70714 11.6919 10.2718ZM10.813 9.80949C9.52364 9.61471 8.33062 9.01194 7.40889 8.08957C6.48715 7.1672 5.8852 5.97377 5.69131 4.68429C4.42744 6.11105 3.92588 8.33234 4.18487 11.3136C7.1667 11.5743 9.38799 11.0728 10.8147 9.80949H10.813ZM12.4536 3.04835C11.505 2.85223 10.5326 2.79734 9.56787 2.88546C8.38194 3.00265 7.37647 3.34425 6.56494 3.90851C6.59718 5.23176 7.13706 6.49194 8.0728 7.42812C9.00854 8.3643 10.2685 8.90476 11.5917 8.93761C12.1554 8.12609 12.4993 7.12121 12.6147 5.93468C12.7025 4.96987 12.6482 3.9974 12.4536 3.04835Z" fill="#343330"/>
</svg>
