<svg width="25" height="24" viewBox="0 0 25 24" fill="none" xmlns="http://www.w3.org/2000/svg">
<path d="M21.125 10.8328V19.5C21.125 19.8978 20.967 20.2793 20.6857 20.5607C20.4044 20.842 20.0228 21 19.625 21H15.875C15.4772 21 15.0956 20.842 14.8143 20.5607C14.533 20.2793 14.375 19.8978 14.375 19.5V15.75C14.375 15.5511 14.296 15.3603 14.1553 15.2197C14.0147 15.079 13.8239 15 13.625 15H10.625C10.4261 15 10.2353 15.079 10.0947 15.2197C9.95402 15.3603 9.875 15.5511 9.875 15.75V19.5C9.875 19.8978 9.71696 20.2793 9.43566 20.5607C9.15436 20.842 8.77282 21 8.375 21H4.625C4.22718 21 3.84564 20.842 3.56434 20.5607C3.28304 20.2793 3.125 19.8978 3.125 19.5V10.8328C3.12497 10.6252 3.16803 10.4199 3.25146 10.2298C3.33489 10.0397 3.45687 9.86895 3.60969 9.72843L11.1097 2.65218L11.12 2.64187C11.3961 2.39074 11.756 2.25159 12.1292 2.25159C12.5025 2.25159 12.8623 2.39074 13.1384 2.64187C13.1416 2.64554 13.1451 2.64898 13.1487 2.65218L20.6487 9.72843C20.8 9.86969 20.9204 10.0407 21.0024 10.2308C21.0844 10.4209 21.1261 10.6258 21.125 10.8328Z" fill="#0279FC"/>
</svg>
