<svg width="25" height="24" viewBox="0 0 25 24" fill="none" xmlns="http://www.w3.org/2000/svg">
<path d="M20.6403 9.72843L13.1403 2.65218C13.1366 2.64898 13.1332 2.64554 13.13 2.64187C12.8539 2.39074 12.494 2.25159 12.1208 2.25159C11.7475 2.25159 11.3877 2.39074 11.1116 2.64187L11.1013 2.65218L3.60969 9.72843C3.45687 9.86895 3.33489 10.0397 3.25146 10.2298C3.16803 10.4199 3.12497 10.6252 3.125 10.8328V19.5C3.125 19.8978 3.28304 20.2793 3.56434 20.5607C3.84564 20.842 4.22718 21 4.625 21H9.125C9.52282 21 9.90436 20.842 10.1857 20.5607C10.467 20.2793 10.625 19.8978 10.625 19.5V15H13.625V19.5C13.625 19.8978 13.783 20.2793 14.0643 20.5607C14.3456 20.842 14.7272 21 15.125 21H19.625C20.0228 21 20.4044 20.842 20.6857 20.5607C20.967 20.2793 21.125 19.8978 21.125 19.5V10.8328C21.125 10.6252 21.082 10.4199 20.9985 10.2298C20.9151 10.0397 20.7931 9.86895 20.6403 9.72843ZM19.625 19.5H15.125V15C15.125 14.6022 14.967 14.2206 14.6857 13.9393C14.4044 13.658 14.0228 13.5 13.625 13.5H10.625C10.2272 13.5 9.84564 13.658 9.56434 13.9393C9.28304 14.2206 9.125 14.6022 9.125 15V19.5H4.625V10.8328L4.63531 10.8234L12.125 3.74999L19.6156 10.8216L19.6259 10.8309L19.625 19.5Z" fill="#808080"/>
</svg>
