<svg width="70" height="56" viewBox="0 0 70 56" fill="none" xmlns="http://www.w3.org/2000/svg">
<rect width="56" height="56" rx="6.22222" fill="#0279FC" fill-opacity="0.2"/>
<path d="M63.7242 52.6397H60.3639V33.2236C60.3639 32.7585 60.2675 32.2985 60.0806 31.8726C59.8937 31.4468 59.6204 31.0643 59.2781 30.7496L42.4766 14.8974C42.4684 14.8902 42.4607 14.8825 42.4535 14.8743C41.8349 14.3117 41.0288 14 40.1927 14C39.3566 14 38.5504 14.3117 37.9319 14.8743L37.9088 14.8974L21.1262 30.7496C20.7839 31.0643 20.5106 31.4468 20.3237 31.8726C20.1368 32.2985 20.0404 32.7585 20.0404 33.2236V52.6397H16.6801C16.2345 52.6397 15.8072 52.8167 15.4921 53.1318C15.177 53.4469 15 53.8743 15 54.3199C15 54.7655 15.177 55.1928 15.4921 55.5079C15.8072 55.823 16.2345 56 16.6801 56H63.7242C64.1698 56 64.5971 55.823 64.9122 55.5079C65.2273 55.1928 65.4043 54.7655 65.4043 54.3199C65.4043 53.8743 65.2273 53.4469 64.9122 53.1318C64.5971 52.8167 64.1698 52.6397 63.7242 52.6397ZM23.4007 33.2236L23.4238 33.2026L40.2021 17.3567L56.9826 33.1984L57.0057 33.2194V52.6397H46.9227V42.5589C46.9227 41.6677 46.5687 40.813 45.9385 40.1828C45.3083 39.5526 44.4536 39.1986 43.5624 39.1986H36.8419C35.9507 39.1986 35.096 39.5526 34.4658 40.1828C33.8356 40.813 33.4816 41.6677 33.4816 42.5589V52.6397H23.4007V33.2236ZM43.5624 52.6397H36.8419V42.5589H43.5624V52.6397Z" fill="#07478E"/>
<path d="M64.7742 52.6397H61.4139V33.2236C61.414 32.7585 61.3175 32.2985 61.1306 31.8726C60.9437 31.4468 60.6705 31.0643 60.3281 30.7496L43.5267 14.8974C43.5185 14.8902 43.5108 14.8825 43.5036 14.8743C42.885 14.3117 42.0789 14 41.2427 14C40.4066 14 39.6005 14.3117 38.9819 14.8743L38.9588 14.8974L22.1763 30.7496C21.8339 31.0643 21.5607 31.4468 21.3738 31.8726C21.1869 32.2985 21.0904 32.7585 21.0905 33.2236V52.6397H17.7302C17.2846 52.6397 16.8572 52.8167 16.5422 53.1318C16.2271 53.4469 16.05 53.8743 16.05 54.3199C16.05 54.7655 16.2271 55.1928 16.5422 55.5079C16.8572 55.823 17.2846 56 17.7302 56H64.7742C65.2198 56 65.6472 55.823 65.9622 55.5079C66.2773 55.1928 66.4543 54.7655 66.4543 54.3199C66.4543 53.8743 66.2773 53.4469 65.9622 53.1318C65.6472 52.8167 65.2198 52.6397 64.7742 52.6397ZM24.4508 33.2236L24.4739 33.2026L41.2522 17.3567L58.0326 33.1984L58.0557 33.2194V52.6397H47.9728V42.5589C47.9728 41.6677 47.6187 40.813 46.9886 40.1828C46.3584 39.5526 45.5037 39.1986 44.6125 39.1986H37.8919C37.0007 39.1986 36.146 39.5526 35.5158 40.1828C34.8857 40.813 34.5316 41.6677 34.5316 42.5589V52.6397H24.4508V33.2236ZM44.6125 52.6397H37.8919V42.5589H44.6125V52.6397Z" fill="#07478E"/>
<path d="M63.0938 33.2212V54.3196H49.6526V42.5586C49.6526 42.113 49.4756 41.6857 49.1605 41.3706C48.8454 41.0555 48.4181 40.8785 47.9725 40.8785H41.2519C40.8063 40.8785 40.379 41.0555 40.0639 41.3706C39.7488 41.6857 39.5718 42.113 39.5718 42.5586V54.3196H26.1306V33.2212C26.1306 32.9871 26.1796 32.7555 26.2744 32.5414C26.3691 32.3273 26.5076 32.1354 26.6809 31.9779L43.4823 16.1132C43.7917 15.8316 44.1949 15.6755 44.6132 15.6755C45.0316 15.6755 45.4348 15.8316 45.7442 16.1132L62.5456 31.9779C62.7185 32.1356 62.8566 32.3276 62.951 32.5417C63.0454 32.7558 63.094 32.9872 63.0938 33.2212Z" fill="#FFD145"/>
<path d="M68.1343 52.6397H64.774V33.2236C64.7741 32.7585 64.6776 32.2985 64.4907 31.8726C64.3038 31.4468 64.0306 31.0643 63.6882 30.7496L46.8868 14.8974C46.8786 14.8902 46.8709 14.8825 46.8637 14.8743C46.2451 14.3117 45.439 14 44.6029 14C43.7667 14 42.9606 14.3117 42.342 14.8743L42.3189 14.8974L25.5364 30.7496C25.194 31.0643 24.9208 31.4468 24.7339 31.8726C24.547 32.2985 24.4505 32.7585 24.4506 33.2236V52.6397H21.0903C20.6447 52.6397 20.2173 52.8167 19.9023 53.1318C19.5872 53.4469 19.4102 53.8743 19.4102 54.3199C19.4102 54.7655 19.5872 55.1928 19.9023 55.5079C20.2173 55.823 20.6447 56 21.0903 56H68.1343C68.5799 56 69.0073 55.823 69.3223 55.5079C69.6374 55.1928 69.8144 54.7655 69.8144 54.3199C69.8144 53.8743 69.6374 53.4469 69.3223 53.1318C69.0073 52.8167 68.5799 52.6397 68.1343 52.6397ZM27.8109 33.2236L27.834 33.2026L44.6123 17.3567L61.3927 33.1984L61.4158 33.2194V52.6397H51.3329V42.5589C51.3329 41.6677 50.9788 40.813 50.3487 40.1828C49.7185 39.5526 48.8638 39.1986 47.9726 39.1986H41.252C40.3608 39.1986 39.5061 39.5526 38.8759 40.1828C38.2458 40.813 37.8917 41.6677 37.8917 42.5589V52.6397H27.8109V33.2236ZM47.9726 52.6397H41.252V42.5589H47.9726V52.6397Z" fill="#0279FC"/>
</svg>
