<svg width="25" height="25" viewBox="0 0 25 25" fill="none" xmlns="http://www.w3.org/2000/svg">
<path d="M21.3751 12.5001C21.3751 12.699 21.296 12.8897 21.1554 13.0304C21.0147 13.171 20.824 13.2501 20.6251 13.2501H12.3751C12.1761 13.2501 11.9854 13.171 11.8447 13.0304C11.7041 12.8897 11.6251 12.699 11.6251 12.5001C11.6251 12.3011 11.7041 12.1104 11.8447 11.9697C11.9854 11.8291 12.1761 11.7501 12.3751 11.7501H20.6251C20.824 11.7501 21.0147 11.8291 21.1554 11.9697C21.296 12.1104 21.3751 12.3011 21.3751 12.5001ZM12.3751 7.25005H20.6251C20.824 7.25005 21.0147 7.17103 21.1554 7.03038C21.296 6.88973 21.3751 6.69896 21.3751 6.50005C21.3751 6.30114 21.296 6.11037 21.1554 5.96972C21.0147 5.82907 20.824 5.75005 20.6251 5.75005H12.3751C12.1761 5.75005 11.9854 5.82907 11.8447 5.96972C11.7041 6.11037 11.6251 6.30114 11.6251 6.50005C11.6251 6.69896 11.7041 6.88973 11.8447 7.03038C11.9854 7.17103 12.1761 7.25005 12.3751 7.25005ZM20.6251 17.7501H12.3751C12.1761 17.7501 11.9854 17.8291 11.8447 17.9697C11.7041 18.1104 11.6251 18.3011 11.6251 18.5001C11.6251 18.699 11.7041 18.8897 11.8447 19.0304C11.9854 19.171 12.1761 19.2501 12.3751 19.2501H20.6251C20.824 19.2501 21.0147 19.171 21.1554 19.0304C21.296 18.8897 21.3751 18.699 21.3751 18.5001C21.3751 18.3011 21.296 18.1104 21.1554 17.9697C21.0147 17.8291 20.824 17.7501 20.6251 17.7501ZM8.09443 4.46943L5.62505 6.93974L4.65568 5.96943C4.51495 5.8287 4.32407 5.74963 4.12505 5.74963C3.92603 5.74963 3.73516 5.8287 3.59443 5.96943C3.4537 6.11016 3.37463 6.30103 3.37463 6.50005C3.37463 6.69907 3.4537 6.88995 3.59443 7.03068L5.09443 8.53068C5.16408 8.60041 5.2468 8.65573 5.33785 8.69347C5.42889 8.73121 5.52649 8.75064 5.62505 8.75064C5.72361 8.75064 5.82121 8.73121 5.91226 8.69347C6.0033 8.65573 6.08602 8.60041 6.15568 8.53068L9.15568 5.53068C9.29641 5.38995 9.37547 5.19907 9.37547 5.00005C9.37547 4.80103 9.29641 4.61016 9.15568 4.46943C9.01495 4.3287 8.82407 4.24963 8.62505 4.24963C8.42603 4.24963 8.23516 4.3287 8.09443 4.46943ZM8.09443 10.4694L5.62505 12.9397L4.65568 11.9694C4.51495 11.8287 4.32407 11.7496 4.12505 11.7496C3.92603 11.7496 3.73516 11.8287 3.59443 11.9694C3.4537 12.1102 3.37463 12.301 3.37463 12.5001C3.37463 12.5986 3.39404 12.6962 3.43176 12.7872C3.46947 12.8783 3.52474 12.961 3.59443 13.0307L5.09443 14.5307C5.16408 14.6004 5.2468 14.6557 5.33785 14.6935C5.42889 14.7312 5.52649 14.7506 5.62505 14.7506C5.72361 14.7506 5.82121 14.7312 5.91226 14.6935C6.0033 14.6557 6.08602 14.6004 6.15568 14.5307L9.15568 11.5307C9.29641 11.3899 9.37547 11.1991 9.37547 11.0001C9.37547 10.801 9.29641 10.6102 9.15568 10.4694C9.01495 10.3287 8.82407 10.2496 8.62505 10.2496C8.42603 10.2496 8.23516 10.3287 8.09443 10.4694ZM8.09443 16.4694L5.62505 18.9397L4.65568 17.9694C4.58599 17.8997 4.50327 17.8445 4.41222 17.8068C4.32118 17.769 4.2236 17.7496 4.12505 17.7496C4.0265 17.7496 3.92892 17.769 3.83788 17.8068C3.74683 17.8445 3.66411 17.8997 3.59443 17.9694C3.52474 18.0391 3.46947 18.1218 3.43176 18.2129C3.39404 18.3039 3.37463 18.4015 3.37463 18.5001C3.37463 18.5986 3.39404 18.6962 3.43176 18.7872C3.46947 18.8783 3.52474 18.961 3.59443 19.0307L5.09443 20.5307C5.16408 20.6004 5.2468 20.6557 5.33785 20.6935C5.42889 20.7312 5.52649 20.7506 5.62505 20.7506C5.72361 20.7506 5.82121 20.7312 5.91226 20.6935C6.0033 20.6557 6.08602 20.6004 6.15568 20.5307L9.15568 17.5307C9.29641 17.3899 9.37547 17.1991 9.37547 17.0001C9.37547 16.801 9.29641 16.6102 9.15568 16.4694C9.01495 16.3287 8.82407 16.2496 8.62505 16.2496C8.42603 16.2496 8.23516 16.3287 8.09443 16.4694Z" fill="#808080"/>
</svg>
