<svg width="25" height="25" viewBox="0 0 25 25" fill="none" xmlns="http://www.w3.org/2000/svg">
<path d="M9.15568 10.4694C9.22541 10.5391 9.28073 10.6218 9.31847 10.7128C9.35621 10.8039 9.37564 10.9015 9.37564 11.0001C9.37564 11.0986 9.35621 11.1962 9.31847 11.2873C9.28073 11.3783 9.22541 11.461 9.15568 11.5307L6.15568 14.5307C6.08602 14.6004 6.0033 14.6557 5.91226 14.6935C5.82121 14.7312 5.72361 14.7506 5.62505 14.7506C5.52649 14.7506 5.42889 14.7312 5.33785 14.6935C5.2468 14.6557 5.16408 14.6004 5.09443 14.5307L3.59443 13.0307C3.52474 12.961 3.46947 12.8783 3.43176 12.7872C3.39404 12.6962 3.37463 12.5986 3.37463 12.5001C3.37463 12.301 3.4537 12.1102 3.59443 11.9694C3.73516 11.8287 3.92603 11.7496 4.12505 11.7496C4.32407 11.7496 4.51495 11.8287 4.65568 11.9694L5.62505 12.9397L8.09443 10.4694C8.16408 10.3997 8.2468 10.3444 8.33785 10.3066C8.42889 10.2689 8.52649 10.2495 8.62505 10.2495C8.72361 10.2495 8.82121 10.2689 8.91226 10.3066C9.0033 10.3444 9.08602 10.3997 9.15568 10.4694ZM8.09443 4.46943L5.62505 6.93974L4.65568 5.96943C4.51495 5.8287 4.32407 5.74963 4.12505 5.74963C3.92603 5.74963 3.73516 5.8287 3.59443 5.96943C3.4537 6.11016 3.37463 6.30103 3.37463 6.50005C3.37463 6.69907 3.4537 6.88995 3.59443 7.03068L5.09443 8.53068C5.16408 8.60041 5.2468 8.65573 5.33785 8.69347C5.42889 8.73121 5.52649 8.75064 5.62505 8.75064C5.72361 8.75064 5.82121 8.73121 5.91226 8.69347C6.0033 8.65573 6.08602 8.60041 6.15568 8.53068L9.15568 5.53068C9.29641 5.38995 9.37547 5.19907 9.37547 5.00005C9.37547 4.80103 9.29641 4.61016 9.15568 4.46943C9.01495 4.3287 8.82407 4.24963 8.62505 4.24963C8.42603 4.24963 8.23516 4.3287 8.09443 4.46943ZM8.09443 16.4694L5.62505 18.9397L4.65568 17.9694C4.58599 17.8997 4.50327 17.8445 4.41222 17.8068C4.32118 17.769 4.2236 17.7496 4.12505 17.7496C4.0265 17.7496 3.92892 17.769 3.83788 17.8068C3.74683 17.8445 3.66411 17.8997 3.59443 17.9694C3.52474 18.0391 3.46947 18.1218 3.43176 18.2129C3.39404 18.3039 3.37463 18.4015 3.37463 18.5001C3.37463 18.5986 3.39404 18.6962 3.43176 18.7872C3.46947 18.8783 3.52474 18.961 3.59443 19.0307L5.09443 20.5307C5.16408 20.6004 5.2468 20.6557 5.33785 20.6935C5.42889 20.7312 5.52649 20.7506 5.62505 20.7506C5.72361 20.7506 5.82121 20.7312 5.91226 20.6935C6.0033 20.6557 6.08602 20.6004 6.15568 20.5307L9.15568 17.5307C9.29641 17.3899 9.37547 17.1991 9.37547 17.0001C9.37547 16.801 9.29641 16.6102 9.15568 16.4694C9.01495 16.3287 8.82407 16.2496 8.62505 16.2496C8.42603 16.2496 8.23516 16.3287 8.09443 16.4694ZM20.6251 5.00005H12.3751C12.1761 5.00005 11.9854 5.07907 11.8447 5.21972C11.7041 5.36037 11.6251 5.55114 11.6251 5.75005V7.25005C11.6251 7.44896 11.7041 7.63973 11.8447 7.78038C11.9854 7.92103 12.1761 8.00005 12.3751 8.00005H20.6251C20.824 8.00005 21.0147 7.92103 21.1554 7.78038C21.296 7.63973 21.3751 7.44896 21.3751 7.25005V5.75005C21.3751 5.55114 21.296 5.36037 21.1554 5.21972C21.0147 5.07907 20.824 5.00005 20.6251 5.00005ZM20.6251 17.0001H12.3751C12.1761 17.0001 11.9854 17.0791 11.8447 17.2197C11.7041 17.3604 11.6251 17.5511 11.6251 17.7501V19.2501C11.6251 19.449 11.7041 19.6397 11.8447 19.7804C11.9854 19.921 12.1761 20.0001 12.3751 20.0001H20.6251C20.824 20.0001 21.0147 19.921 21.1554 19.7804C21.296 19.6397 21.3751 19.449 21.3751 19.2501V17.7501C21.3751 17.5511 21.296 17.3604 21.1554 17.2197C21.0147 17.0791 20.824 17.0001 20.6251 17.0001ZM20.6251 11.0001H12.3751C12.1761 11.0001 11.9854 11.0791 11.8447 11.2197C11.7041 11.3604 11.6251 11.5511 11.6251 11.7501V13.2501C11.6251 13.449 11.7041 13.6397 11.8447 13.7804C11.9854 13.921 12.1761 14.0001 12.3751 14.0001H20.6251C20.824 14.0001 21.0147 13.921 21.1554 13.7804C21.296 13.6397 21.3751 13.449 21.3751 13.2501V11.7501C21.3751 11.5511 21.296 11.3604 21.1554 11.2197C21.0147 11.0791 20.824 11.0001 20.6251 11.0001Z" fill="#0279FC"/>
</svg>
