<svg width="52" height="7" viewBox="0 0 52 7" fill="none" xmlns="http://www.w3.org/2000/svg">
<path d="M0.333333 3.5C0.333333 4.97276 1.52724 6.16667 3 6.16667C4.47276 6.16667 5.66667 4.97276 5.66667 3.5C5.66667 2.02724 4.47276 0.833333 3 0.833333C1.52724 0.833333 0.333333 2.02724 0.333333 3.5ZM46.3333 3.5C46.3333 4.97276 47.5272 6.16667 49 6.16667C50.4728 6.16667 51.6667 4.97276 51.6667 3.5C51.6667 2.02724 50.4728 0.833333 49 0.833333C47.5272 0.833333 46.3333 2.02724 46.3333 3.5ZM3 4H4.91667V3H3V4ZM8.75 4L12.5833 4V3L8.75 3V4ZM16.4167 4H20.25V3L16.4167 3V4ZM24.0833 4H27.9167V3L24.0833 3V4ZM31.75 4H35.5833V3L31.75 3V4ZM39.4167 4H43.25V3H39.4167V4ZM47.0833 4L49 4V3H47.0833V4Z" fill="#E5E5E5"/>
</svg>
