<svg width="73" height="56" viewBox="0 0 73 56" fill="none" xmlns="http://www.w3.org/2000/svg">
<rect width="56" height="56" rx="6.22222" fill="#0279FC" fill-opacity="0.2"/>
<path d="M60.6257 38.7226C60.1724 38.7223 59.7198 38.7584 59.2723 38.8305L51.8813 19.1203C51.7578 18.7912 51.5369 18.5076 51.248 18.3075C50.9591 18.1073 50.6159 18 50.2645 18H43.3569C42.899 18 42.4597 18.1819 42.1359 18.5058C41.812 18.8296 41.6301 19.2689 41.6301 19.7269C41.6301 20.1849 41.812 20.6241 42.1359 20.948C42.4597 21.2718 42.899 21.4538 43.3569 21.4538H49.0686L56.0409 40.0458C55.0499 40.6662 54.1948 41.4808 53.527 42.4405C52.8592 43.4003 52.3927 44.4852 52.1554 45.6301H43.4735L38.077 31.2085C37.9529 30.8777 37.7303 30.5929 37.4393 30.3925C37.1482 30.1922 36.8027 30.086 36.4494 30.0882H19.1806C18.7226 30.0882 18.2834 30.2701 17.9595 30.5939C17.6357 30.9178 17.4538 31.357 17.4538 31.815C17.4538 32.273 17.6357 32.7123 17.9595 33.0361C18.2834 33.36 18.7226 33.5419 19.1806 33.5419H20.9075V36.4323C18.8422 37.4154 17.0974 38.9631 15.875 40.8964C14.6526 42.8297 14.0025 45.0696 14 47.3569C14 47.8149 14.1819 48.2542 14.5058 48.578C14.8296 48.9019 15.2689 49.0838 15.7269 49.0838H17.6264C18.0228 51.0357 19.0817 52.7905 20.6239 54.051C22.166 55.3114 24.0964 56 26.0882 56C28.0799 56 30.0103 55.3114 31.5524 54.051C33.0946 52.7905 34.1535 51.0357 34.5499 49.0838H52.164C52.4908 50.6845 53.2649 52.1596 54.3965 53.3379C55.5282 54.5162 56.9709 55.3492 58.557 55.7403C60.1432 56.1314 61.8078 56.0644 63.3575 55.5472C64.9071 55.03 66.2782 54.0838 67.3116 52.8185C68.345 51.5532 68.9981 50.0206 69.1953 48.3989C69.3924 46.7771 69.1254 45.1327 68.4253 43.6567C67.7252 42.1806 66.6207 40.9335 65.2401 40.0601C63.8595 39.1867 62.2594 38.7229 60.6257 38.7226ZM26.0882 52.5376C25.0171 52.5373 23.9725 52.205 23.0981 51.5865C22.2236 50.9679 21.5624 50.0936 21.2054 49.0838H30.9709C30.6139 50.0936 29.9527 50.9679 29.0783 51.5865C28.2038 52.205 27.1592 52.5373 26.0882 52.5376ZM17.6286 45.6301C17.9274 44.1701 18.5983 42.8121 19.5763 41.6878C20.5544 40.5634 21.8063 39.7108 23.2107 39.2126C23.5472 39.0934 23.8385 38.873 24.0445 38.5815C24.2506 38.29 24.3612 37.9419 24.3613 37.585V33.5419H35.2536L39.7866 45.6301H17.6286ZM60.6257 52.5376C59.5638 52.5364 58.5278 52.2089 57.6582 51.5994C56.7885 50.9899 56.1272 50.1279 55.7637 49.1301C55.4003 48.1323 55.3522 47.0468 55.6261 46.0208C55.9 44.9948 56.4826 44.0777 57.295 43.3938L59.0089 47.9635C59.0886 48.1761 59.2094 48.371 59.3643 48.5369C59.5193 48.7028 59.7054 48.8366 59.912 48.9306C60.1187 49.0246 60.3418 49.077 60.5687 49.0848C60.7957 49.0926 61.0219 49.0556 61.2345 48.9759C61.4471 48.8962 61.6419 48.7755 61.8078 48.6205C61.9738 48.4656 62.1076 48.2795 62.2016 48.0728C62.2956 47.8662 62.348 47.643 62.3557 47.4161C62.3635 47.1892 62.3265 46.963 62.2468 46.7504L60.5286 42.1763H60.6257C61.9997 42.1763 63.3174 42.7221 64.289 43.6937C65.2606 44.6652 65.8064 45.983 65.8064 47.3569C65.8064 48.7309 65.2606 50.0487 64.289 51.0202C63.3174 51.9918 61.9997 52.5376 60.6257 52.5376Z" fill="#07478E"/>
<ellipse cx="64.0796" cy="47.357" rx="5.18064" ry="5.18064" fill="#FFD145"/>
<ellipse cx="29.542" cy="47.357" rx="5.18064" ry="5.18064" fill="#FFD145"/>
<path d="M45.7314 47.357H19.1807C19.18 45.2138 19.8439 43.1231 21.081 41.373C22.3182 39.6228 24.0675 38.2994 26.0882 37.585V31.8151H39.9032L45.7314 47.357Z" fill="#FFD145"/>
<path d="M64.0796 38.7226C63.6263 38.7223 63.1737 38.7584 62.7262 38.8305L55.3351 19.1203C55.2117 18.7912 54.9907 18.5076 54.7018 18.3075C54.4129 18.1073 54.0698 18 53.7183 18H46.8108C46.3528 18 45.9136 18.1819 45.5897 18.5058C45.2659 18.8296 45.0839 19.2689 45.0839 19.7269C45.0839 20.1849 45.2659 20.6241 45.5897 20.948C45.9136 21.2718 46.3528 21.4538 46.8108 21.4538H52.5225L59.4947 40.0458C58.5037 40.6662 57.6486 41.4808 56.9809 42.4405C56.3131 43.4003 55.8465 44.4852 55.6093 45.6301H46.9274L41.5309 31.2085C41.4068 30.8777 41.1842 30.5929 40.8931 30.3925C40.6021 30.1922 40.2566 30.086 39.9033 30.0882H22.6345C22.1765 30.0882 21.7373 30.2701 21.4134 30.5939C21.0896 30.9178 20.9076 31.357 20.9076 31.815C20.9076 32.273 21.0896 32.7123 21.4134 33.0361C21.7373 33.36 22.1765 33.5419 22.6345 33.5419H24.3614V36.4323C22.2961 37.4154 20.5513 38.9631 19.3289 40.8964C18.1065 42.8297 17.4564 45.0696 17.4539 47.3569C17.4539 47.8149 17.6358 48.2542 17.9596 48.578C18.2835 48.9019 18.7227 49.0838 19.1807 49.0838H21.0803C21.4766 51.0357 22.5356 52.7905 24.0777 54.051C25.6198 55.3114 27.5503 56 29.542 56C31.5337 56 33.4642 55.3114 35.0063 54.051C36.5484 52.7905 37.6074 51.0357 38.0037 49.0838H55.6179C55.9446 50.6845 56.7188 52.1596 57.8504 53.3379C58.982 54.5162 60.4247 55.3492 62.0109 55.7403C63.5971 56.1314 65.2617 56.0644 66.8113 55.5472C68.361 55.03 69.7321 54.0838 70.7654 52.8185C71.7988 51.5532 72.452 50.0206 72.6491 48.3989C72.8463 46.7771 72.5793 45.1327 71.8792 43.6567C71.1791 42.1806 70.0746 40.9335 68.694 40.0601C67.3133 39.1867 65.7133 38.7229 64.0796 38.7226ZM29.542 52.5376C28.471 52.5373 27.4263 52.205 26.5519 51.5865C25.6775 50.9679 25.0163 50.0936 24.6593 49.0838H34.4248C34.0677 50.0936 33.4065 50.9679 32.5321 51.5865C31.6577 52.205 30.6131 52.5373 29.542 52.5376ZM21.0825 45.6301C21.3813 44.1701 22.0522 42.8121 23.0302 41.6878C24.0082 40.5634 25.2601 39.7108 26.6646 39.2126C27.0011 39.0934 27.2924 38.873 27.4984 38.5815C27.7044 38.29 27.8151 37.9419 27.8151 37.585V33.5419H38.7074L43.2405 45.6301H21.0825ZM64.0796 52.5376C63.0176 52.5364 61.9817 52.2089 61.112 51.5994C60.2424 50.9899 59.5811 50.1279 59.2176 49.1301C58.8541 48.1323 58.8061 47.0468 59.08 46.0208C59.3539 44.9948 59.9365 44.0777 60.7489 43.3938L62.4628 47.9635C62.5425 48.1761 62.6632 48.371 62.8182 48.5369C62.9731 48.7028 63.1592 48.8366 63.3659 48.9306C63.5726 49.0246 63.7957 49.077 64.0226 49.0848C64.2495 49.0926 64.4757 49.0556 64.6883 48.9759C64.9009 48.8962 65.0958 48.7755 65.2617 48.6205C65.4276 48.4656 65.5614 48.2795 65.6554 48.0728C65.7494 47.8662 65.8018 47.643 65.8096 47.4161C65.8174 47.1892 65.7804 46.963 65.7007 46.7504L63.9825 42.1763H64.0796C65.4536 42.1763 66.7713 42.7221 67.7429 43.6937C68.7144 44.6652 69.2602 45.983 69.2602 47.3569C69.2602 48.7309 68.7144 50.0487 67.7429 51.0202C66.7713 51.9918 65.4536 52.5376 64.0796 52.5376Z" fill="#0279FC"/>
</svg>
