<svg width="146" height="30" viewBox="0 0 146 30" fill="none" xmlns="http://www.w3.org/2000/svg">
<path d="M22.326 24.8404C20.9191 24.8404 19.7787 25.9686 19.7787 27.3604C19.7787 28.7521 20.9191 29.8804 22.326 29.8804V24.8404ZM8.89844 5.16036H28.1482V0.120361H8.89844V5.16036ZM28.1482 24.8404H22.326V29.8804H28.1482V24.8404ZM37.7307 14.6404V15.0004H42.8253V14.6404H37.7307ZM37.7307 15.0004V15.3604H42.8253V15.0004H37.7307ZM28.1482 29.8804C36.2541 29.8804 42.8253 23.3795 42.8253 15.3604H37.7307C37.7307 20.596 33.4404 24.8404 28.1482 24.8404V29.8804ZM28.1482 5.16036C33.4404 5.16036 37.7307 9.40469 37.7307 14.6404H42.8253C42.8253 6.62119 36.2541 0.120361 28.1482 0.120361V5.16036Z" fill="url(#paint0_linear_1358_1946)"/>
<path d="M3.66846 26.0029L18.176 14.3084C18.3799 14.144 18.4033 13.8442 18.2274 13.6508L8.62922 3.10034" stroke="url(#paint1_linear_1358_1946)" stroke-width="6.04042" stroke-linecap="round" stroke-linejoin="round"/>
<path d="M70.7862 2.54459V12.6098H67.4405V6.06309L62.9717 12.6098H60.4385L55.9458 6.06309V12.6098H52.6001V2.54459H56.3998L61.7051 10.0286L67.0104 2.54459H70.7862Z" fill="#0279FC"/>
<path d="M85.278 10.6919H78.6345L77.5352 12.6098H74.0222L80.0205 2.53017H83.9159L89.9142 12.6098H86.3773L85.278 10.6919ZM84.3699 9.07689L81.9563 4.86622L79.5426 9.07689H84.3699Z" fill="#0279FC"/>
<path d="M98.8715 12.7107C97.7084 12.7107 96.657 12.5906 95.717 12.3502C94.7929 12.1099 94.0601 11.7638 93.5184 11.312C92.9767 10.8602 92.6979 10.3266 92.682 9.71137H96.2666C96.3144 10.1247 96.5534 10.4516 96.9836 10.6919C97.4296 10.9323 98.035 11.0524 98.7998 11.0524C99.5804 11.0524 100.194 10.9419 100.64 10.7208C101.086 10.4901 101.309 10.192 101.309 9.82673C101.309 9.52872 101.158 9.28357 100.855 9.09131C100.552 8.89904 100.17 8.75003 99.7079 8.64428C99.2618 8.52892 98.6405 8.40395 97.8439 8.26936C96.7605 8.07709 95.8763 7.88963 95.1912 7.70698C94.5221 7.51471 93.9406 7.23112 93.4467 6.85619C92.9688 6.47166 92.7298 5.96215 92.7298 5.32767C92.7298 4.73164 92.9767 4.21251 93.4706 3.7703C93.9645 3.32808 94.6575 2.99161 95.5497 2.76089C96.4419 2.52056 97.4615 2.40039 98.6086 2.40039C100.329 2.40039 101.723 2.65515 102.791 3.16465C103.874 3.66455 104.471 4.36633 104.583 5.26999H100.903C100.871 4.9239 100.624 4.64031 100.162 4.4192C99.7158 4.18848 99.1184 4.07312 98.3696 4.07312C97.7164 4.07312 97.1907 4.17406 96.7924 4.37594C96.41 4.57782 96.2188 4.87103 96.2188 5.25557C96.2188 5.52474 96.3622 5.75065 96.649 5.93331C96.9517 6.10635 97.3181 6.25055 97.7483 6.36591C98.1944 6.47166 98.8157 6.59663 99.6123 6.74083C100.696 6.9331 101.58 7.12537 102.265 7.31764C102.95 7.5099 103.539 7.79831 104.033 8.18284C104.527 8.56738 104.774 9.07208 104.774 9.69695C104.774 10.2353 104.543 10.7352 104.081 11.1966C103.619 11.6581 102.942 12.0282 102.05 12.307C101.158 12.5762 100.098 12.7107 98.8715 12.7107Z" fill="#0279FC"/>
<path d="M120.795 5.65933C120.795 6.19768 120.579 6.70238 120.149 7.17344C119.735 7.64449 119.074 8.02422 118.166 8.31262C117.274 8.60102 116.142 8.74522 114.772 8.74522H111.976V12.6098H108.631V2.54459H114.772C116.063 2.54459 117.162 2.67918 118.07 2.94835C118.978 3.21753 119.655 3.58764 120.102 4.0587C120.564 4.52975 120.795 5.0633 120.795 5.65933ZM114.629 7.11576C115.553 7.11576 116.238 6.99078 116.684 6.74083C117.13 6.48127 117.353 6.12077 117.353 5.65933C117.353 4.67876 116.445 4.18848 114.629 4.18848H111.976V7.11576H114.629Z" fill="#0279FC"/>
<path d="M127.471 2.54459V12.6098H124.126V2.54459H127.471Z" fill="#0279FC"/>
<path d="M146 12.6098H142.654L135.079 5.70259V12.6098H131.733V2.53017H135.079L142.654 9.45181V2.53017H146V12.6098Z" fill="#0279FC"/>
<g clip-path="url(#clip0_1358_1946)">
<path d="M70.7862 2.54508V12.6103H67.4405V6.06358L62.9717 12.6103H60.4385L55.9458 6.06358V12.6103H52.6001V2.54508H56.3998L61.7051 10.0291L67.0104 2.54508H70.7862Z" fill="#FFD145"/>
<path d="M85.278 10.6924H78.6345L77.5352 12.6103H74.0222L80.0205 2.53066H83.9159L89.9142 12.6103H86.3773L85.278 10.6924ZM84.3699 9.07737L81.9563 4.86671L79.5426 9.07737H84.3699Z" fill="#FFD145"/>
<path d="M98.8715 12.7112C97.7084 12.7112 96.657 12.5911 95.717 12.3507C94.7929 12.1104 94.0601 11.7643 93.5184 11.3125C92.9767 10.8607 92.6979 10.3271 92.682 9.71186H96.2666C96.3144 10.1252 96.5534 10.4521 96.9836 10.6924C97.4296 10.9328 98.035 11.0529 98.7998 11.0529C99.5804 11.0529 100.194 10.9424 100.64 10.7213C101.086 10.4905 101.309 10.1925 101.309 9.82722C101.309 9.5292 101.158 9.28406 100.855 9.09179C100.552 8.89953 100.17 8.75052 99.7079 8.64477C99.2618 8.52941 98.6405 8.40444 97.8439 8.26985C96.7605 8.07758 95.8763 7.89012 95.1912 7.70747C94.5221 7.5152 93.9406 7.2316 93.4467 6.85668C92.9688 6.47215 92.7298 5.96264 92.7298 5.32815C92.7298 4.73212 92.9767 4.213 93.4706 3.77079C93.9645 3.32857 94.6575 2.9921 95.5497 2.76138C96.4419 2.52105 97.4615 2.40088 98.6086 2.40088C100.329 2.40088 101.723 2.65563 102.791 3.16514C103.874 3.66504 104.471 4.36682 104.583 5.27047H100.903C100.871 4.92439 100.624 4.6408 100.162 4.41969C99.7158 4.18897 99.1184 4.07361 98.3696 4.07361C97.7164 4.07361 97.1907 4.17455 96.7924 4.37643C96.41 4.57831 96.2188 4.87152 96.2188 5.25605C96.2188 5.52523 96.3622 5.75114 96.649 5.9338C96.9517 6.10684 97.3181 6.25104 97.7483 6.3664C98.1944 6.47215 98.8157 6.59712 99.6123 6.74132C100.696 6.93359 101.58 7.12586 102.265 7.31813C102.95 7.51039 103.539 7.79879 104.033 8.18333C104.527 8.56787 104.774 9.07257 104.774 9.69744C104.774 10.2358 104.543 10.7357 104.081 11.1971C103.619 11.6586 102.942 12.0287 102.05 12.3075C101.158 12.5766 100.098 12.7112 98.8715 12.7112Z" fill="#FFD145"/>
<path d="M120.795 5.65982C120.795 6.19817 120.579 6.70287 120.149 7.17392C119.735 7.64498 119.074 8.02471 118.166 8.31311C117.274 8.60151 116.142 8.74571 114.772 8.74571H111.976V12.6103H108.631V2.54508H114.772C116.063 2.54508 117.162 2.67967 118.07 2.94884C118.978 3.21802 119.655 3.58813 120.102 4.05919C120.564 4.53024 120.795 5.06379 120.795 5.65982ZM114.629 7.11624C115.553 7.11624 116.238 6.99127 116.684 6.74132C117.13 6.48176 117.353 6.12126 117.353 5.65982C117.353 4.67925 116.445 4.18897 114.629 4.18897H111.976V7.11624H114.629Z" fill="#FFD145"/>
<path d="M127.471 2.54508V12.6103H124.126V2.54508H127.471Z" fill="#FFD145"/>
<path d="M146 12.6103H142.654L135.079 5.70308V12.6103H131.733V2.53066H135.079L142.654 9.4523V2.53066H146V12.6103Z" fill="#FFD145"/>
</g>
<path d="M56.6612 23.1572C57.0687 23.228 57.4144 23.4366 57.6983 23.7832C57.9821 24.1297 58.124 24.5223 58.124 24.9608C58.124 25.3356 58.0221 25.6751 57.8184 25.9793C57.6218 26.2763 57.3344 26.5133 56.9559 26.6901C56.5775 26.8598 56.1372 26.9447 55.635 26.9447H52.6001V19.5713H55.4931C56.0098 19.5713 56.4537 19.6562 56.8249 19.8259C57.1961 19.9957 57.4763 20.2256 57.6655 20.5155C57.8547 20.7985 57.9494 21.1167 57.9494 21.4704C57.9494 21.8947 57.8329 22.2484 57.6 22.5313C57.3671 22.8142 57.0542 23.0228 56.6612 23.1572ZM53.8446 22.6692H55.3839C55.7915 22.6692 56.108 22.5808 56.3337 22.404C56.5666 22.2201 56.683 21.9584 56.683 21.6189C56.683 21.2865 56.5666 21.0283 56.3337 20.8444C56.108 20.6535 55.7915 20.558 55.3839 20.558H53.8446V22.6692ZM55.5258 25.9581C55.9479 25.9581 56.2791 25.859 56.5192 25.661C56.7594 25.463 56.8795 25.1871 56.8795 24.8335C56.8795 24.4728 56.7521 24.1863 56.4974 23.9741C56.2427 23.762 55.9043 23.6559 55.4821 23.6559H53.8446V25.9581H55.5258Z" fill="black"/>
<path d="M59.0616 23.9954C59.0616 23.4083 59.1853 22.8885 59.4328 22.4358C59.6875 21.9831 60.0296 21.633 60.4589 21.3855C60.8956 21.1309 61.376 21.0036 61.9 21.0036C62.373 21.0036 62.7842 21.0955 63.1336 21.2794C63.4902 21.4562 63.774 21.679 63.9851 21.9478V21.099H65.2405V26.9447H63.9851V26.0748C63.774 26.3506 63.4866 26.5805 63.1227 26.7643C62.7588 26.9482 62.3439 27.0402 61.8781 27.0402C61.3614 27.0402 60.8883 26.9129 60.4589 26.6583C60.0296 26.3966 59.6875 26.0359 59.4328 25.5761C59.1853 25.1093 59.0616 24.5824 59.0616 23.9954ZM63.9851 24.0166C63.9851 23.6134 63.8978 23.2633 63.7231 22.9663C63.5557 22.6692 63.3337 22.4429 63.0572 22.2873C62.7806 22.1317 62.4822 22.0539 62.162 22.0539C61.8417 22.0539 61.5434 22.1317 61.2668 22.2873C60.9902 22.4358 60.7646 22.6586 60.59 22.9557C60.4226 23.2456 60.3389 23.5922 60.3389 23.9954C60.3389 24.3985 60.4226 24.7521 60.59 25.0563C60.7646 25.3604 60.9902 25.5938 61.2668 25.7565C61.5506 25.9121 61.849 25.9899 62.162 25.9899C62.4822 25.9899 62.7806 25.9121 63.0572 25.7565C63.3337 25.6009 63.5557 25.3745 63.7231 25.0775C63.8978 24.7734 63.9851 24.4197 63.9851 24.0166Z" fill="black"/>
<path d="M69.91 21.0036C70.3831 21.0036 70.8052 21.099 71.1764 21.29C71.5548 21.481 71.8496 21.7639 72.0607 22.1387C72.2717 22.5136 72.3772 22.9663 72.3772 23.4967V26.9447H71.1436V23.6771C71.1436 23.1537 71.009 22.7541 70.7397 22.4782C70.4704 22.1953 70.1029 22.0539 69.6371 22.0539C69.1713 22.0539 68.8002 22.1953 68.5236 22.4782C68.2543 22.7541 68.1197 23.1537 68.1197 23.6771V26.9447H66.8752V21.099H68.1197V21.7674C68.3235 21.5269 68.5818 21.3395 68.8948 21.2051C69.215 21.0708 69.5534 21.0036 69.91 21.0036Z" fill="black"/>
<path d="M79.3795 21.099L75.6896 29.6925H74.4014L75.6241 26.8492L73.2551 21.099H74.6416L76.3337 25.5549L78.0913 21.099H79.3795Z" fill="black"/>
<path d="M85.7662 21.099V26.9447H84.5216V26.2551C84.3251 26.4956 84.0668 26.6865 83.7465 26.828C83.4336 26.9624 83.0988 27.0296 82.7422 27.0296C82.2691 27.0296 81.8434 26.9341 81.4649 26.7431C81.0937 26.5522 80.799 26.2693 80.5807 25.8944C80.3696 25.5195 80.2641 25.0669 80.2641 24.5364V21.099H81.4977V24.3561C81.4977 24.8795 81.6323 25.2826 81.9016 25.5655C82.1709 25.8414 82.5384 25.9793 83.0042 25.9793C83.47 25.9793 83.8375 25.8414 84.1068 25.5655C84.3834 25.2826 84.5216 24.8795 84.5216 24.3561V21.099H85.7662Z" fill="black"/>
<path d="M94.6897 21.0036C95.1628 21.0036 95.5849 21.099 95.9561 21.29C96.3345 21.481 96.6293 21.7639 96.8404 22.1387C97.0587 22.5136 97.1679 22.9663 97.1679 23.4967V26.9447H95.9343V23.6771C95.9343 23.1537 95.7996 22.7541 95.5303 22.4782C95.2611 22.1953 94.8935 22.0539 94.4277 22.0539C93.962 22.0539 93.5908 22.1953 93.3142 22.4782C93.0449 22.7541 92.9103 23.1537 92.9103 23.6771V26.9447H91.6767V23.6771C91.6767 23.1537 91.5421 22.7541 91.2728 22.4782C91.0035 22.1953 90.636 22.0539 90.1702 22.0539C89.7044 22.0539 89.3332 22.1953 89.0566 22.4782C88.7874 22.7541 88.6527 23.1537 88.6527 23.6771V26.9447H87.4082V21.099H88.6527V21.7674C88.8565 21.5269 89.1149 21.3395 89.4278 21.2051C89.7408 21.0708 90.0756 21.0036 90.4322 21.0036C90.9125 21.0036 91.3419 21.1026 91.7204 21.3006C92.0988 21.4987 92.3899 21.7851 92.5937 22.16C92.7757 21.8063 93.0595 21.5269 93.4452 21.3218C93.831 21.1097 94.2458 21.0036 94.6897 21.0036Z" fill="black"/>
<path d="M98.3367 23.9954C98.3367 23.4083 98.4604 22.8885 98.7078 22.4358C98.9626 21.9831 99.3046 21.633 99.734 21.3855C100.171 21.1309 100.651 21.0036 101.175 21.0036C101.648 21.0036 102.059 21.0955 102.409 21.2794C102.765 21.4562 103.049 21.679 103.26 21.9478V21.099H104.516V26.9447H103.26V26.0748C103.049 26.3506 102.762 26.5805 102.398 26.7643C102.034 26.9482 101.619 27.0402 101.153 27.0402C100.636 27.0402 100.163 26.9129 99.734 26.6583C99.3046 26.3966 98.9626 26.0359 98.7078 25.5761C98.4604 25.1093 98.3367 24.5824 98.3367 23.9954ZM103.26 24.0166C103.26 23.6134 103.173 23.2633 102.998 22.9663C102.831 22.6692 102.609 22.4429 102.332 22.2873C102.056 22.1317 101.757 22.0539 101.437 22.0539C101.117 22.0539 100.818 22.1317 100.542 22.2873C100.265 22.4358 100.04 22.6586 99.865 22.9557C99.6976 23.2456 99.6139 23.5922 99.6139 23.9954C99.6139 24.3985 99.6976 24.7521 99.865 25.0563C100.04 25.3604 100.265 25.5938 100.542 25.7565C100.826 25.9121 101.124 25.9899 101.437 25.9899C101.757 25.9899 102.056 25.9121 102.332 25.7565C102.609 25.6009 102.831 25.3745 102.998 25.0775C103.173 24.7734 103.26 24.4197 103.26 24.0166Z" fill="black"/>
<path d="M108.334 27.0402C107.861 27.0402 107.435 26.9589 107.056 26.7962C106.685 26.6264 106.39 26.4001 106.172 26.1172C105.954 25.8272 105.837 25.5054 105.823 25.1518H107.111C107.133 25.3993 107.253 25.6079 107.471 25.7777C107.697 25.9404 107.977 26.0217 108.312 26.0217C108.661 26.0217 108.93 25.9581 109.12 25.8307C109.316 25.6964 109.414 25.5266 109.414 25.3215C109.414 25.1022 109.305 24.9396 109.087 24.8335C108.876 24.7274 108.537 24.6107 108.072 24.4834C107.62 24.3631 107.253 24.2464 106.969 24.1333C106.685 24.0201 106.438 23.8468 106.227 23.6134C106.023 23.38 105.921 23.0724 105.921 22.6904C105.921 22.3792 106.016 22.0963 106.205 21.8417C106.394 21.58 106.663 21.3749 107.013 21.2264C107.369 21.0778 107.777 21.0036 108.235 21.0036C108.919 21.0036 109.469 21.1733 109.884 21.5128C110.306 21.8452 110.532 22.3014 110.561 22.8814H109.316C109.294 22.6197 109.185 22.411 108.989 22.2554C108.792 22.0998 108.526 22.022 108.192 22.022C107.864 22.022 107.613 22.0822 107.438 22.2024C107.264 22.3226 107.176 22.4818 107.176 22.6798C107.176 22.8354 107.235 22.9663 107.351 23.0724C107.468 23.1784 107.609 23.2633 107.777 23.327C107.944 23.3836 108.192 23.4578 108.519 23.5498C108.956 23.6629 109.312 23.7796 109.589 23.8999C109.873 24.013 110.117 24.1828 110.32 24.4091C110.524 24.6354 110.63 24.936 110.637 25.3109C110.637 25.6433 110.542 25.9404 110.353 26.2021C110.164 26.4638 109.895 26.6689 109.545 26.8174C109.203 26.9659 108.799 27.0402 108.334 27.0402Z" fill="black"/>
<path d="M120.123 21.7674C120.123 22.1423 120.032 22.4959 119.85 22.8283C119.668 23.1608 119.377 23.4331 118.977 23.6452C118.577 23.8504 118.064 23.9529 117.438 23.9529H116.062V26.9447H114.818V19.5713H117.438C118.02 19.5713 118.511 19.6703 118.911 19.8684C119.319 20.0593 119.621 20.321 119.818 20.6535C120.021 20.9859 120.123 21.3572 120.123 21.7674ZM117.438 22.9663C117.911 22.9663 118.264 22.8637 118.497 22.6586C118.729 22.4464 118.846 22.1494 118.846 21.7674C118.846 20.9611 118.376 20.558 117.438 20.558H116.062V22.9663H117.438Z" fill="black"/>
<path d="M121.943 20.3246C121.718 20.3246 121.528 20.2503 121.376 20.1018C121.223 19.9533 121.146 19.7694 121.146 19.5501C121.146 19.3308 121.223 19.147 121.376 18.9984C121.528 18.8499 121.718 18.7756 121.943 18.7756C122.162 18.7756 122.347 18.8499 122.5 18.9984C122.653 19.147 122.729 19.3308 122.729 19.5501C122.729 19.7694 122.653 19.9533 122.5 20.1018C122.347 20.2503 122.162 20.3246 121.943 20.3246ZM122.555 21.099V26.9447H121.31V21.099H122.555Z" fill="black"/>
<path d="M127.223 21.0036C127.697 21.0036 128.119 21.099 128.49 21.29C128.868 21.481 129.163 21.7639 129.374 22.1387C129.585 22.5136 129.691 22.9663 129.691 23.4967V26.9447H128.457V23.6771C128.457 23.1537 128.322 22.7541 128.053 22.4782C127.784 22.1953 127.416 22.0539 126.951 22.0539C126.485 22.0539 126.114 22.1953 125.837 22.4782C125.568 22.7541 125.433 23.1537 125.433 23.6771V26.9447H124.189V21.099H125.433V21.7674C125.637 21.5269 125.895 21.3395 126.208 21.2051C126.528 21.0708 126.867 21.0036 127.223 21.0036Z" fill="black"/>
<path d="M132.73 22.0857V25.3215C132.73 25.5408 132.781 25.6999 132.883 25.7989C132.992 25.8909 133.174 25.9368 133.429 25.9368H134.193V26.9447H133.21C132.65 26.9447 132.221 26.8174 131.922 26.5628C131.624 26.3082 131.475 25.8944 131.475 25.3215V22.0857H130.765V21.099H131.475V19.6456H132.73V21.099H134.193V22.0857H132.73Z" fill="black"/>
<path d="M134.925 23.9954C134.925 23.4083 135.049 22.8885 135.296 22.4358C135.551 21.9831 135.893 21.633 136.322 21.3855C136.759 21.1309 137.24 21.0036 137.764 21.0036C138.237 21.0036 138.648 21.0955 138.997 21.2794C139.354 21.4562 139.638 21.679 139.849 21.9478V21.099H141.104V26.9447H139.849V26.0748C139.638 26.3506 139.35 26.5805 138.986 26.7643C138.622 26.9482 138.207 27.0402 137.742 27.0402C137.225 27.0402 136.752 26.9129 136.322 26.6583C135.893 26.3966 135.551 26.0359 135.296 25.5761C135.049 25.1093 134.925 24.5824 134.925 23.9954ZM139.849 24.0166C139.849 23.6134 139.761 23.2633 139.587 22.9663C139.419 22.6692 139.197 22.4429 138.921 22.2873C138.644 22.1317 138.346 22.0539 138.026 22.0539C137.705 22.0539 137.407 22.1317 137.13 22.2873C136.854 22.4358 136.628 22.6586 136.453 22.9557C136.286 23.2456 136.202 23.5922 136.202 23.9954C136.202 24.3985 136.286 24.7521 136.453 25.0563C136.628 25.3604 136.854 25.5938 137.13 25.7565C137.414 25.9121 137.713 25.9899 138.026 25.9899C138.346 25.9899 138.644 25.9121 138.921 25.7565C139.197 25.6009 139.419 25.3745 139.587 25.0775C139.761 24.7734 139.849 24.4197 139.849 24.0166Z" fill="black"/>
<path d="M143.983 21.9478C144.165 21.6507 144.405 21.4209 144.704 21.2582C145.009 21.0884 145.37 21.0036 145.785 21.0036V22.2554H145.468C144.98 22.2554 144.609 22.3757 144.354 22.6162C144.107 22.8566 143.983 23.2739 143.983 23.868V26.9447H142.739V21.099H143.983V21.9478Z" fill="black"/>
<defs>
<linearGradient id="paint0_linear_1358_1946" x1="16.644" y1="15.2878" x2="43.4558" y2="15.2878" gradientUnits="userSpaceOnUse">
<stop stop-color="#174090"/>
<stop offset="1" stop-color="#0029FF"/>
</linearGradient>
<linearGradient id="paint1_linear_1358_1946" x1="11.1096" y1="8.55331" x2="11.1096" y2="26.0029" gradientUnits="userSpaceOnUse">
<stop stop-color="#6100FF"/>
<stop offset="1" stop-color="#D3CD30"/>
</linearGradient>
<clipPath id="clip0_1358_1946">
<rect width="39.4219" height="10.3104" fill="white" transform="translate(106.578 2.40063)"/>
</clipPath>
</defs>
</svg>
