<svg width="46" height="44" viewBox="0 0 46 44" fill="none" xmlns="http://www.w3.org/2000/svg">
<rect x="0.25" width="40" height="40" rx="4.8" fill="#0279FC" fill-opacity="0.3"/>
<path d="M40.6499 29.3818H32.359C31.626 29.3818 30.9231 29.673 30.4048 30.1913C29.8865 30.7095 29.5954 31.4125 29.5954 32.1454V40.4364C29.5954 41.1693 29.8865 41.8723 30.4048 42.3905C30.9231 42.9088 31.626 43.2 32.359 43.2H40.6499C41.3829 43.2 42.0858 42.9088 42.6041 42.3905C43.1224 41.8723 43.4135 41.1693 43.4135 40.4364V32.1454C43.4135 31.4125 43.1224 30.7095 42.6041 30.1913C42.0858 29.673 41.3829 29.3818 40.6499 29.3818ZM40.6499 40.4364H32.359V32.1454H40.6499V40.4364ZM24.0681 12.8H15.7772C15.0442 12.8 14.3413 13.0912 13.823 13.6094C13.3047 14.1277 13.0135 14.8307 13.0135 15.5636V23.8545C13.0135 24.5875 13.3047 25.2904 13.823 25.8087C14.3413 26.327 15.0442 26.6182 15.7772 26.6182H24.0681C24.8011 26.6182 25.504 26.327 26.0223 25.8087C26.5406 25.2904 26.8317 24.5875 26.8317 23.8545V15.5636C26.8317 14.8307 26.5406 14.1277 26.0223 13.6094C25.504 13.0912 24.8011 12.8 24.0681 12.8ZM24.0681 23.8545H15.7772V15.5636H24.0681V23.8545ZM40.6499 12.8H32.359C31.626 12.8 30.9231 13.0912 30.4048 13.6094C29.8865 14.1277 29.5954 14.8307 29.5954 15.5636V23.8545C29.5954 24.5875 29.8865 25.2904 30.4048 25.8087C30.9231 26.327 31.626 26.6182 32.359 26.6182H40.6499C41.3829 26.6182 42.0858 26.327 42.6041 25.8087C43.1224 25.2904 43.4135 24.5875 43.4135 23.8545V15.5636C43.4135 14.8307 43.1224 14.1277 42.6041 13.6094C42.0858 13.0912 41.3829 12.8 40.6499 12.8ZM40.6499 23.8545H32.359V15.5636H40.6499V23.8545ZM24.0681 29.3818H15.7772C15.0442 29.3818 14.3413 29.673 13.823 30.1913C13.3047 30.7095 13.0135 31.4125 13.0135 32.1454V40.4364C13.0135 41.1693 13.3047 41.8723 13.823 42.3905C14.3413 42.9088 15.0442 43.2 15.7772 43.2H24.0681C24.8011 43.2 25.504 42.9088 26.0223 42.3905C26.5406 41.8723 26.8317 41.1693 26.8317 40.4364V32.1454C26.8317 31.4125 26.5406 30.7095 26.0223 30.1913C25.504 29.673 24.8011 29.3818 24.0681 29.3818ZM24.0681 40.4364H15.7772V32.1454H24.0681V40.4364Z" fill="#07478E"/>
<path d="M27.5226 15.5636V23.8546C27.5226 24.221 27.377 24.5725 27.1178 24.8316C26.8587 25.0908 26.5072 25.2364 26.1407 25.2364H17.8498C17.4834 25.2364 17.1319 25.0908 16.8727 24.8316C16.6136 24.5725 16.468 24.221 16.468 23.8546V15.5636C16.468 15.1972 16.6136 14.8457 16.8727 14.5865C17.1319 14.3274 17.4834 14.1818 17.8498 14.1818H26.1407C26.5072 14.1818 26.8587 14.3274 27.1178 14.5865C27.377 14.8457 27.5226 15.1972 27.5226 15.5636ZM42.7226 14.1818H34.4317C34.0652 14.1818 33.7137 14.3274 33.4546 14.5865C33.1954 14.8457 33.0498 15.1972 33.0498 15.5636V23.8546C33.0498 24.221 33.1954 24.5725 33.4546 24.8316C33.7137 25.0908 34.0652 25.2364 34.4317 25.2364H42.7226C43.089 25.2364 43.4405 25.0908 43.6997 24.8316C43.9588 24.5725 44.1044 24.221 44.1044 23.8546V15.5636C44.1044 15.1972 43.9588 14.8457 43.6997 14.5865C43.4405 14.3274 43.089 14.1818 42.7226 14.1818ZM26.1407 30.7636H17.8498C17.4834 30.7636 17.1319 30.9092 16.8727 31.1684C16.6136 31.4275 16.468 31.779 16.468 32.1455V40.4364C16.468 40.8029 16.6136 41.1543 16.8727 41.4135C17.1319 41.6726 17.4834 41.8182 17.8498 41.8182H26.1407C26.5072 41.8182 26.8587 41.6726 27.1178 41.4135C27.377 41.1543 27.5226 40.8029 27.5226 40.4364V32.1455C27.5226 31.779 27.377 31.4275 27.1178 31.1684C26.8587 30.9092 26.5072 30.7636 26.1407 30.7636ZM42.7226 30.7636H34.4317C34.0652 30.7636 33.7137 30.9092 33.4546 31.1684C33.1954 31.4275 33.0498 31.779 33.0498 32.1455V40.4364C33.0498 40.8029 33.1954 41.1543 33.4546 41.4135C33.7137 41.6726 34.0652 41.8182 34.4317 41.8182H42.7226C43.089 41.8182 43.4405 41.6726 43.6997 41.4135C43.9588 41.1543 44.1044 40.8029 44.1044 40.4364V32.1455C44.1044 31.779 43.9588 31.4275 43.6997 31.1684C43.4405 30.9092 43.089 30.7636 42.7226 30.7636Z" fill="#FFD145"/>
<path d="M42.7225 29.3818H34.4316C33.6987 29.3818 32.9957 29.673 32.4775 30.1913C31.9592 30.7095 31.668 31.4125 31.668 32.1454V40.4364C31.668 41.1693 31.9592 41.8723 32.4775 42.3905C32.9957 42.9088 33.6987 43.2 34.4316 43.2H42.7225C43.4555 43.2 44.1584 42.9088 44.6767 42.3905C45.195 41.8723 45.4862 41.1693 45.4862 40.4364V32.1454C45.4862 31.4125 45.195 30.7095 44.6767 30.1913C44.1584 29.673 43.4555 29.3818 42.7225 29.3818ZM42.7225 40.4364H34.4316V32.1454H42.7225V40.4364ZM26.1407 12.8H17.8498C17.1169 12.8 16.4139 13.0912 15.8956 13.6094C15.3773 14.1277 15.0862 14.8307 15.0862 15.5636V23.8545C15.0862 24.5875 15.3773 25.2904 15.8956 25.8087C16.4139 26.327 17.1169 26.6182 17.8498 26.6182H26.1407C26.8737 26.6182 27.5766 26.327 28.0949 25.8087C28.6132 25.2904 28.9044 24.5875 28.9044 23.8545V15.5636C28.9044 14.8307 28.6132 14.1277 28.0949 13.6094C27.5766 13.0912 26.8737 12.8 26.1407 12.8ZM26.1407 23.8545H17.8498V15.5636H26.1407V23.8545ZM42.7225 12.8H34.4316C33.6987 12.8 32.9957 13.0912 32.4775 13.6094C31.9592 14.1277 31.668 14.8307 31.668 15.5636V23.8545C31.668 24.5875 31.9592 25.2904 32.4775 25.8087C32.9957 26.327 33.6987 26.6182 34.4316 26.6182H42.7225C43.4555 26.6182 44.1584 26.327 44.6767 25.8087C45.195 25.2904 45.4862 24.5875 45.4862 23.8545V15.5636C45.4862 14.8307 45.195 14.1277 44.6767 13.6094C44.1584 13.0912 43.4555 12.8 42.7225 12.8ZM42.7225 23.8545H34.4316V15.5636H42.7225V23.8545ZM26.1407 29.3818H17.8498C17.1169 29.3818 16.4139 29.673 15.8956 30.1913C15.3773 30.7095 15.0862 31.4125 15.0862 32.1454V40.4364C15.0862 41.1693 15.3773 41.8723 15.8956 42.3905C16.4139 42.9088 17.1169 43.2 17.8498 43.2H26.1407C26.8737 43.2 27.5766 42.9088 28.0949 42.3905C28.6132 41.8723 28.9044 41.1693 28.9044 40.4364V32.1454C28.9044 31.4125 28.6132 30.7095 28.0949 30.1913C27.5766 29.673 26.8737 29.3818 26.1407 29.3818ZM26.1407 40.4364H17.8498V32.1454H26.1407V40.4364Z" fill="#0279FC"/>
</svg>
