<svg width="22" height="22" viewBox="0 0 22 22" fill="none" xmlns="http://www.w3.org/2000/svg">
<path d="M15.125 1.375H6.875C6.32799 1.375 5.80339 1.5923 5.41659 1.97909C5.0298 2.36589 4.8125 2.89049 4.8125 3.4375V18.5625C4.8125 19.1095 5.0298 19.6341 5.41659 20.0209C5.80339 20.4077 6.32799 20.625 6.875 20.625H15.125C15.672 20.625 16.1966 20.4077 16.5834 20.0209C16.9702 19.6341 17.1875 19.1095 17.1875 18.5625V3.4375C17.1875 2.89049 16.9702 2.36589 16.5834 1.97909C16.1966 1.5923 15.672 1.375 15.125 1.375ZM15.8125 18.5625C15.8125 18.7448 15.7401 18.9197 15.6111 19.0486C15.4822 19.1776 15.3073 19.25 15.125 19.25H6.875C6.69266 19.25 6.5178 19.1776 6.38886 19.0486C6.25993 18.9197 6.1875 18.7448 6.1875 18.5625V3.4375C6.1875 3.25516 6.25993 3.0803 6.38886 2.95136C6.5178 2.82243 6.69266 2.75 6.875 2.75H15.125C15.3073 2.75 15.4822 2.82243 15.6111 2.95136C15.7401 3.0803 15.8125 3.25516 15.8125 3.4375V18.5625ZM12.0312 5.15625C12.0312 5.36021 11.9708 5.55959 11.8575 5.72918C11.7441 5.89877 11.5831 6.03095 11.3946 6.109C11.2062 6.18705 10.9989 6.20748 10.7988 6.16769C10.5988 6.12789 10.415 6.02968 10.2708 5.88545C10.1266 5.74123 10.0284 5.55748 9.98856 5.35744C9.94877 5.15739 9.9692 4.95004 10.0472 4.76161C10.1253 4.57317 10.2575 4.41211 10.4271 4.2988C10.5967 4.18548 10.796 4.125 11 4.125C11.2735 4.125 11.5358 4.23365 11.7292 4.42705C11.9226 4.62044 12.0312 4.88275 12.0312 5.15625Z" fill="#343330"/>
</svg>
