<svg width="22" height="22" viewBox="0 0 22 22" fill="none" xmlns="http://www.w3.org/2000/svg">
<path d="M17.875 3.4375H4.125C3.76033 3.4375 3.41059 3.58237 3.15273 3.84023C2.89487 4.09809 2.75 4.44783 2.75 4.8125V9.86305C2.75 17.5648 9.26578 20.1188 10.5703 20.552C10.8488 20.6473 11.1512 20.6473 11.4297 20.552C12.7359 20.118 19.25 17.5639 19.25 9.86219V4.8125C19.25 4.44783 19.1051 4.09809 18.8473 3.84023C18.5894 3.58237 18.2397 3.4375 17.875 3.4375ZM17.875 9.86477C17.875 16.604 12.1739 18.8555 11 19.2474C9.83727 18.8607 4.125 16.6109 4.125 9.86477V4.8125H17.875V9.86477ZM7.5625 11C7.5625 10.8177 7.63493 10.6428 7.76386 10.5139C7.8928 10.3849 8.06766 10.3125 8.25 10.3125H10.3125V8.25C10.3125 8.06766 10.3849 7.8928 10.5139 7.76386C10.6428 7.63493 10.8177 7.5625 11 7.5625C11.1823 7.5625 11.3572 7.63493 11.4861 7.76386C11.6151 7.8928 11.6875 8.06766 11.6875 8.25V10.3125H13.75C13.9323 10.3125 14.1072 10.3849 14.2361 10.5139C14.3651 10.6428 14.4375 10.8177 14.4375 11C14.4375 11.1823 14.3651 11.3572 14.2361 11.4861C14.1072 11.6151 13.9323 11.6875 13.75 11.6875H11.6875V13.75C11.6875 13.9323 11.6151 14.1072 11.4861 14.2361C11.3572 14.3651 11.1823 14.4375 11 14.4375C10.8177 14.4375 10.6428 14.3651 10.5139 14.2361C10.3849 14.1072 10.3125 13.9323 10.3125 13.75V11.6875H8.25C8.06766 11.6875 7.8928 11.6151 7.76386 11.4861C7.63493 11.3572 7.5625 11.1823 7.5625 11Z" fill="#343330"/>
</svg>
