<svg width="22" height="22" viewBox="0 0 22 22" fill="none" xmlns="http://www.w3.org/2000/svg">
<path d="M17.875 3.4375H4.125C3.76033 3.4375 3.41059 3.58237 3.15273 3.84023C2.89487 4.09809 2.75 4.44783 2.75 4.8125V9.86391C2.75 17.5648 9.26578 20.1197 10.5703 20.5537C10.8489 20.6484 11.1511 20.6484 11.4297 20.5537C12.7359 20.1197 19.25 17.5648 19.25 9.86391V4.8125C19.25 4.44783 19.1051 4.09809 18.8473 3.84023C18.5894 3.58237 18.2397 3.4375 17.875 3.4375ZM17.875 9.86477C17.875 16.604 12.173 18.8555 11 19.2474C9.83727 18.8598 4.125 16.61 4.125 9.86477V4.8125H17.875V9.86477ZM7.07609 12.1739C6.94709 12.0449 6.87462 11.8699 6.87462 11.6875C6.87462 11.5051 6.94709 11.3301 7.07609 11.2011C7.2051 11.0721 7.38006 10.9996 7.5625 10.9996C7.74494 10.9996 7.9199 11.0721 8.04891 11.2011L9.625 12.7772L13.9511 8.45109C14.015 8.38722 14.0908 8.33655 14.1743 8.30198C14.2577 8.26741 14.3472 8.24962 14.4375 8.24962C14.5278 8.24962 14.6173 8.26741 14.7007 8.30198C14.7842 8.33655 14.86 8.38722 14.9239 8.45109C14.9878 8.51497 15.0385 8.5908 15.073 8.67426C15.1076 8.75772 15.1254 8.84717 15.1254 8.9375C15.1254 9.02783 15.1076 9.11728 15.073 9.20074C15.0385 9.2842 14.9878 9.36003 14.9239 9.42391L10.1114 14.2364C10.0476 14.3003 9.97173 14.351 9.88827 14.3856C9.80481 14.4202 9.71535 14.438 9.625 14.438C9.53465 14.438 9.44519 14.4202 9.36173 14.3856C9.27827 14.351 9.20244 14.3003 9.13859 14.2364L7.07609 12.1739Z" fill="#343330"/>
</svg>
