<svg width="25" height="25" viewBox="0 0 25 25" fill="none" xmlns="http://www.w3.org/2000/svg">
<path d="M12.625 2.75C10.6966 2.75 8.81157 3.32183 7.20819 4.39317C5.60482 5.46452 4.35513 6.98726 3.61718 8.76884C2.87922 10.5504 2.68614 12.5108 3.06235 14.4021C3.43855 16.2934 4.36715 18.0307 5.73071 19.3943C7.09428 20.7579 8.83156 21.6865 10.7229 22.0627C12.6142 22.4389 14.5746 22.2458 16.3562 21.5078C18.1377 20.7699 19.6605 19.5202 20.7318 17.9168C21.8032 16.3134 22.375 14.4284 22.375 12.5C22.3723 9.91498 21.3442 7.43661 19.5163 5.60872C17.6884 3.78084 15.21 2.75273 12.625 2.75ZM12.25 7.25C12.4725 7.25 12.69 7.31598 12.875 7.4396C13.06 7.56321 13.2042 7.73891 13.2894 7.94448C13.3745 8.15005 13.3968 8.37625 13.3534 8.59448C13.31 8.81271 13.2028 9.01316 13.0455 9.1705C12.8882 9.32783 12.6877 9.43498 12.4695 9.47838C12.2513 9.52179 12.0251 9.49951 11.8195 9.41436C11.6139 9.32922 11.4382 9.18502 11.3146 9.00002C11.191 8.81501 11.125 8.5975 11.125 8.375C11.125 8.07663 11.2435 7.79048 11.4545 7.5795C11.6655 7.36853 11.9516 7.25 12.25 7.25ZM13.375 17.75C12.9772 17.75 12.5956 17.592 12.3143 17.3107C12.033 17.0294 11.875 16.6478 11.875 16.25V12.5C11.6761 12.5 11.4853 12.421 11.3447 12.2803C11.204 12.1397 11.125 11.9489 11.125 11.75C11.125 11.5511 11.204 11.3603 11.3447 11.2197C11.4853 11.079 11.6761 11 11.875 11C12.2728 11 12.6544 11.158 12.9357 11.4393C13.217 11.7206 13.375 12.1022 13.375 12.5V16.25C13.5739 16.25 13.7647 16.329 13.9053 16.4697C14.046 16.6103 14.125 16.8011 14.125 17C14.125 17.1989 14.046 17.3897 13.9053 17.5303C13.7647 17.671 13.5739 17.75 13.375 17.75Z" fill="#0279FC"/>
</svg>
