<svg width="48" height="49" viewBox="0 0 48 49" fill="none" xmlns="http://www.w3.org/2000/svg">
<rect width="40" height="40" rx="4.8" fill="#0279FC" fill-opacity="0.3"/>
<circle cx="28.8" cy="31.8" r="16.8" fill="#07478E"/>
<path d="M46.4 31C46.4 34.0063 45.5085 36.945 43.8383 39.4447C42.1681 41.9443 39.7942 43.8925 37.0168 45.0429C34.2394 46.1934 31.1831 46.4944 28.2346 45.9079C25.2861 45.3214 22.5777 43.8738 20.452 41.748C18.3262 39.6222 16.8786 36.9139 16.2921 33.9654C15.7056 31.0168 16.0066 27.9606 17.157 25.1832C18.3075 22.4058 20.2557 20.0318 22.7553 18.3616C25.255 16.6915 28.1937 15.8 31.2 15.8C35.2313 15.8 39.0975 17.4014 41.948 20.252C44.7986 23.1025 46.4 26.9687 46.4 31Z" fill="#FFD145"/>
<path d="M33.7846 39.5538C33.7846 39.8966 33.6485 40.2253 33.4061 40.4676C33.1638 40.71 32.8351 40.8461 32.4923 40.8461C31.8069 40.8461 31.1494 40.5738 30.6647 40.0891C30.18 39.6044 29.9077 38.947 29.9077 38.2615V31.8C29.565 31.8 29.2363 31.6638 28.9939 31.4215C28.7516 31.1791 28.6154 30.8504 28.6154 30.5077C28.6154 30.1649 28.7516 29.8362 28.9939 29.5939C29.2363 29.3515 29.565 29.2154 29.9077 29.2154C30.5932 29.2154 31.2506 29.4877 31.7353 29.9724C32.22 30.4571 32.4923 31.1145 32.4923 31.8V38.2615C32.8351 38.2615 33.1638 38.3977 33.4061 38.64C33.6485 38.8824 33.7846 39.2111 33.7846 39.5538ZM48 31.8C48 35.1227 47.0147 38.3708 45.1687 41.1336C43.3227 43.8963 40.6989 46.0496 37.6291 47.3212C34.5593 48.5927 31.1814 48.9254 27.9225 48.2772C24.6636 47.629 21.6702 46.0289 19.3206 43.6794C16.9711 41.3299 15.3711 38.3364 14.7228 35.0775C14.0746 31.8186 14.4073 28.4407 15.6789 25.3709C16.9504 22.3011 19.1037 19.6773 21.8664 17.8313C24.6292 15.9853 27.8773 15 31.2 15C35.6542 15.0047 39.9246 16.7762 43.0742 19.9258C46.2238 23.0754 47.9953 27.3458 48 31.8ZM45.4154 31.8C45.4154 28.9885 44.5817 26.2401 43.0197 23.9024C41.4577 21.5646 39.2375 19.7426 36.64 18.6667C34.0425 17.5908 31.1843 17.3093 28.4267 17.8578C25.6692 18.4063 23.1363 19.7601 21.1482 21.7482C19.1602 23.7363 17.8063 26.2692 17.2578 29.0267C16.7093 31.7842 16.9908 34.6425 18.0667 37.24C19.1427 39.8375 20.9647 42.0576 23.3024 43.6197C25.6401 45.1817 28.3885 46.0154 31.2 46.0154C34.9689 46.0111 38.5821 44.512 41.2471 41.8471C43.9121 39.1821 45.4111 35.5688 45.4154 31.8ZM30.5539 26.6308C30.9373 26.6308 31.312 26.5171 31.6308 26.3041C31.9496 26.0911 32.1981 25.7883 32.3448 25.4341C32.4915 25.0799 32.5299 24.6902 32.4551 24.3141C32.3803 23.9381 32.1957 23.5927 31.9246 23.3216C31.6535 23.0505 31.3081 22.8659 30.932 22.7911C30.556 22.7163 30.1663 22.7547 29.8121 22.9014C29.4578 23.0481 29.1551 23.2966 28.9421 23.6154C28.7291 23.9341 28.6154 24.3089 28.6154 24.6923C28.6154 25.2064 28.8196 25.6995 29.1832 26.063C29.5467 26.4265 30.0398 26.6308 30.5539 26.6308Z" fill="#0279FC"/>
<path d="M33.7846 39.5538C33.7846 39.8966 33.6485 40.2253 33.4061 40.4676C33.1638 40.71 32.8351 40.8461 32.4923 40.8461C31.8069 40.8461 31.1494 40.5738 30.6647 40.0891C30.18 39.6044 29.9077 38.947 29.9077 38.2615V31.8C29.565 31.8 29.2363 31.6638 28.9939 31.4215C28.7516 31.1791 28.6154 30.8504 28.6154 30.5077C28.6154 30.1649 28.7516 29.8362 28.9939 29.5939C29.2363 29.3515 29.565 29.2154 29.9077 29.2154C30.5932 29.2154 31.2506 29.4877 31.7353 29.9724C32.22 30.4571 32.4923 31.1145 32.4923 31.8V38.2615C32.8351 38.2615 33.1638 38.3977 33.4061 38.64C33.6485 38.8824 33.7846 39.2111 33.7846 39.5538ZM48 31.8C48 35.1227 47.0147 38.3708 45.1687 41.1336C43.3227 43.8963 40.6989 46.0496 37.6291 47.3212C34.5593 48.5927 31.1814 48.9254 27.9225 48.2772C24.6636 47.629 21.6702 46.0289 19.3206 43.6794C16.9711 41.3299 15.3711 38.3364 14.7228 35.0775C14.0746 31.8186 14.4073 28.4407 15.6789 25.3709C16.9504 22.3011 19.1037 19.6773 21.8664 17.8313C24.6292 15.9853 27.8773 15 31.2 15C35.6542 15.0047 39.9246 16.7762 43.0742 19.9258C46.2238 23.0754 47.9953 27.3458 48 31.8ZM45.4154 31.8C45.4154 28.9885 44.5817 26.2401 43.0197 23.9024C41.4577 21.5646 39.2375 19.7426 36.64 18.6667C34.0425 17.5908 31.1843 17.3093 28.4267 17.8578C25.6692 18.4063 23.1363 19.7601 21.1482 21.7482C19.1602 23.7363 17.8063 26.2692 17.2578 29.0267C16.7093 31.7842 16.9908 34.6425 18.0667 37.24C19.1427 39.8375 20.9647 42.0576 23.3024 43.6197C25.6401 45.1817 28.3885 46.0154 31.2 46.0154C34.9689 46.0111 38.5821 44.512 41.2471 41.8471C43.9121 39.1821 45.4111 35.5688 45.4154 31.8ZM30.5539 26.6308C30.9373 26.6308 31.312 26.5171 31.6308 26.3041C31.9496 26.0911 32.1981 25.7883 32.3448 25.4341C32.4915 25.0799 32.5299 24.6902 32.4551 24.3141C32.3803 23.9381 32.1957 23.5927 31.9246 23.3216C31.6535 23.0505 31.3081 22.8659 30.932 22.7911C30.556 22.7163 30.1663 22.7547 29.8121 22.9014C29.4578 23.0481 29.1551 23.2966 28.9421 23.6154C28.7291 23.9341 28.6154 24.3089 28.6154 24.6923C28.6154 25.2064 28.8196 25.6995 29.1832 26.063C29.5467 26.4265 30.0398 26.6308 30.5539 26.6308Z" fill="#0279FC"/>
</svg>
