<svg width="25" height="25" viewBox="0 0 25 25" fill="none" xmlns="http://www.w3.org/2000/svg">
<path d="M12.625 2.75C10.6966 2.75 8.81157 3.32183 7.20819 4.39317C5.60482 5.46451 4.35513 6.98726 3.61718 8.76884C2.87922 10.5504 2.68614 12.5108 3.06235 14.4021C3.43855 16.2934 4.36715 18.0307 5.73071 19.3943C7.09428 20.7579 8.83156 21.6865 10.7229 22.0627C12.6142 22.4389 14.5746 22.2458 16.3562 21.5078C18.1377 20.7699 19.6605 19.5202 20.7318 17.9168C21.8032 16.3134 22.375 14.4284 22.375 12.5C22.3723 9.91498 21.3442 7.43661 19.5163 5.60872C17.6884 3.78084 15.21 2.75273 12.625 2.75ZM12.625 20.75C10.9933 20.75 9.39826 20.2661 8.04155 19.3596C6.68484 18.4531 5.62742 17.1646 5.003 15.6571C4.37858 14.1496 4.2152 12.4908 4.53353 10.8905C4.85185 9.29016 5.63759 7.82015 6.79137 6.66637C7.94516 5.51259 9.41517 4.72685 11.0155 4.40852C12.6159 4.09019 14.2747 4.25357 15.7821 4.87799C17.2896 5.50242 18.5781 6.55984 19.4846 7.91655C20.3911 9.27325 20.875 10.8683 20.875 12.5C20.8725 14.6873 20.0025 16.7843 18.4559 18.3309C16.9093 19.8775 14.8123 20.7475 12.625 20.75ZM14.125 17C14.125 17.1989 14.046 17.3897 13.9053 17.5303C13.7647 17.671 13.5739 17.75 13.375 17.75C12.9772 17.75 12.5956 17.592 12.3143 17.3107C12.033 17.0294 11.875 16.6478 11.875 16.25V12.5C11.6761 12.5 11.4853 12.421 11.3447 12.2803C11.204 12.1397 11.125 11.9489 11.125 11.75C11.125 11.5511 11.204 11.3603 11.3447 11.2197C11.4853 11.079 11.6761 11 11.875 11C12.2728 11 12.6544 11.158 12.9357 11.4393C13.217 11.7206 13.375 12.1022 13.375 12.5V16.25C13.5739 16.25 13.7647 16.329 13.9053 16.4697C14.046 16.6103 14.125 16.8011 14.125 17ZM11.125 8.375C11.125 8.1525 11.191 7.93499 11.3146 7.74998C11.4382 7.56498 11.6139 7.42078 11.8195 7.33564C12.0251 7.25049 12.2513 7.22821 12.4695 7.27162C12.6877 7.31502 12.8882 7.42217 13.0455 7.5795C13.2028 7.73684 13.31 7.93729 13.3534 8.15552C13.3968 8.37375 13.3745 8.59995 13.2894 8.80552C13.2042 9.01109 13.06 9.18679 12.875 9.3104C12.69 9.43402 12.4725 9.5 12.25 9.5C11.9516 9.5 11.6655 9.38147 11.4545 9.1705C11.2435 8.95952 11.125 8.67337 11.125 8.375Z" fill="#808080"/>
</svg>
