<svg width="20" height="21" viewBox="0 0 20 21" fill="none" xmlns="http://www.w3.org/2000/svg">
<path d="M17.9422 17.5577L14.0305 13.6468C15.1642 12.2856 15.7296 10.5398 15.6089 8.77238C15.4883 7.005 14.6909 5.35217 13.3826 4.15772C12.0744 2.96328 10.356 2.3192 8.58493 2.35944C6.81388 2.39969 5.12653 3.12118 3.87389 4.37383C2.62125 5.62647 1.89976 7.31382 1.85951 9.08486C1.81926 10.8559 2.46335 12.5743 3.65779 13.8825C4.85223 15.1908 6.50506 15.9882 8.27245 16.1089C10.0398 16.2295 11.7857 15.6642 13.1469 14.5304L17.0578 18.4421C17.1159 18.5002 17.1848 18.5463 17.2607 18.5777C17.3366 18.6091 17.4179 18.6253 17.5 18.6253C17.5821 18.6253 17.6634 18.6091 17.7393 18.5777C17.8152 18.5463 17.8841 18.5002 17.9422 18.4421C18.0003 18.3841 18.0463 18.3151 18.0777 18.2392C18.1092 18.1634 18.1253 18.0821 18.1253 17.9999C18.1253 17.9178 18.1092 17.8365 18.0777 17.7606C18.0463 17.6848 18.0003 17.6158 17.9422 17.5577ZM3.125 9.24993C3.125 8.13741 3.4549 7.04988 4.07298 6.12485C4.69107 5.19982 5.56957 4.47885 6.59741 4.05311C7.62524 3.62737 8.75624 3.51598 9.84738 3.73302C10.9385 3.95006 11.9408 4.48579 12.7275 5.27246C13.5141 6.05913 14.0499 7.06141 14.2669 8.15255C14.484 9.24369 14.3726 10.3747 13.9468 11.4025C13.5211 12.4304 12.8001 13.3089 11.8751 13.927C10.9501 14.545 9.86252 14.8749 8.75 14.8749C7.25866 14.8733 5.82889 14.2801 4.77435 13.2256C3.71982 12.171 3.12665 10.7413 3.125 9.24993Z" fill="#757575"/>
</svg>
