<svg width="46" height="46" viewBox="0 0 46 46" fill="none" xmlns="http://www.w3.org/2000/svg">
<rect x="0.205688" width="40.8163" height="40.8163" rx="4.89796" fill="#0279FC" fill-opacity="0.3"/>
<path d="M27.4585 16.7033C26.4152 16.7033 25.3954 17.0126 24.528 17.5922C23.6605 18.1718 22.9845 18.9956 22.5852 19.9594C22.186 20.9233 22.0816 21.9838 22.2851 23.007C22.4886 24.0302 22.991 24.9701 23.7287 25.7078C24.4663 26.4455 25.4062 26.9478 26.4294 27.1514C27.4526 27.3549 28.5132 27.2504 29.477 26.8512C30.4408 26.452 31.2646 25.7759 31.8442 24.9085C32.4238 24.041 32.7332 23.0212 32.7332 21.978C32.7332 20.579 32.1775 19.2374 31.1882 18.2482C30.199 17.259 28.8574 16.7033 27.4585 16.7033ZM27.4585 24.6153C26.9368 24.6153 26.4269 24.4607 25.9932 24.1709C25.5595 23.8811 25.2215 23.4692 25.0218 22.9873C24.8222 22.5053 24.77 21.9751 24.8718 21.4635C24.9735 20.9519 25.2247 20.4819 25.5936 20.1131C25.9624 19.7442 26.4323 19.4931 26.9439 19.3913C27.4555 19.2895 27.9858 19.3418 28.4677 19.5414C28.9496 19.741 29.3615 20.079 29.6513 20.5127C29.9411 20.9465 30.0958 21.4564 30.0958 21.978C30.0958 22.6775 29.818 23.3483 29.3234 23.8429C28.8287 24.3375 28.1579 24.6153 27.4585 24.6153ZM27.4585 29.8901C26.4152 29.8901 25.3954 30.1994 24.528 30.779C23.6605 31.3586 22.9845 32.1824 22.5852 33.1462C22.186 34.1101 22.0816 35.1706 22.2851 36.1938C22.4886 37.217 22.991 38.1569 23.7287 38.8946C24.4663 39.6323 25.4062 40.1346 26.4294 40.3382C27.4526 40.5417 28.5132 40.4372 29.477 40.038C30.4408 39.6388 31.2646 38.9627 31.8442 38.0953C32.4238 37.2278 32.7332 36.208 32.7332 35.1648C32.7332 33.7658 32.1775 32.4242 31.1882 31.435C30.199 30.4458 28.8574 29.8901 27.4585 29.8901ZM27.4585 37.8022C26.9368 37.8022 26.4269 37.6475 25.9932 37.3577C25.5595 37.0679 25.2215 36.656 25.0218 36.1741C24.8222 35.6922 24.77 35.1619 24.8718 34.6503C24.9735 34.1387 25.2247 33.6687 25.5936 33.2999C25.9624 32.9311 26.4323 32.6799 26.9439 32.5781C27.4555 32.4763 27.9858 32.5286 28.4677 32.7282C28.9496 32.9278 29.3615 33.2658 29.6513 33.6995C29.9411 34.1333 30.0958 34.6432 30.0958 35.1648C30.0958 35.8643 29.818 36.5351 29.3234 37.0297C28.8287 37.5243 28.1579 37.8022 27.4585 37.8022ZM41.9639 31.2087H39.3266V20.6593H41.9639C42.3137 20.6593 42.6491 20.5204 42.8964 20.2731C43.1437 20.0258 43.2826 19.6904 43.2826 19.3406C43.2826 18.9909 43.1437 18.6555 42.8964 18.4082C42.6491 18.1609 42.3137 18.0219 41.9639 18.0219H39.3266V14.0659C39.3266 13.3664 39.0487 12.6956 38.5541 12.201C38.0595 11.7064 37.3887 11.4285 36.6892 11.4285H18.2277C17.5282 11.4285 16.8574 11.7064 16.3628 12.201C15.8682 12.6956 15.5903 13.3664 15.5903 14.0659V18.0219H12.953C12.6032 18.0219 12.2678 18.1609 12.0205 18.4082C11.7732 18.6555 11.6343 18.9909 11.6343 19.3406C11.6343 19.6904 11.7732 20.0258 12.0205 20.2731C12.2678 20.5204 12.6032 20.6593 12.953 20.6593H15.5903V31.2087H12.953C12.6032 31.2087 12.2678 31.3477 12.0205 31.595C11.7732 31.8423 11.6343 32.1777 11.6343 32.5274C11.6343 32.8772 11.7732 33.2126 12.0205 33.4599C12.2678 33.7072 12.6032 33.8461 12.953 33.8461H15.5903V43.0769C15.5903 43.7763 15.8682 44.4472 16.3628 44.9418C16.8574 45.4364 17.5282 45.7142 18.2277 45.7142H36.6892C37.3887 45.7142 38.0595 45.4364 38.5541 44.9418C39.0487 44.4472 39.3266 43.7763 39.3266 43.0769V33.8461H41.9639C42.3137 33.8461 42.6491 33.7072 42.8964 33.4599C43.1437 33.2126 43.2826 32.8772 43.2826 32.5274C43.2826 32.1777 43.1437 31.8423 42.8964 31.595C42.6491 31.3477 42.3137 31.2087 41.9639 31.2087ZM36.6892 43.0769H18.2277V14.0659H36.6892V43.0769Z" fill="#07478E"/>
<path d="M39.3265 12.7472H20.8649C20.5152 12.7472 20.1798 12.8861 19.9325 13.1334C19.6852 13.3807 19.5463 13.7161 19.5463 14.0659V43.0769C19.5463 43.4266 19.6852 43.762 19.9325 44.0093C20.1798 44.2566 20.5152 44.3955 20.8649 44.3955H39.3265C39.6762 44.3955 40.0116 44.2566 40.2589 44.0093C40.5062 43.762 40.6452 43.4266 40.6452 43.0769V14.0659C40.6452 13.7161 40.5062 13.3807 40.2589 13.1334C40.0116 12.8861 39.6762 12.7472 39.3265 12.7472ZM30.0957 39.1208C29.3133 39.1208 28.5484 38.8888 27.8979 38.4541C27.2473 38.0194 26.7402 37.4016 26.4408 36.6787C26.1414 35.9558 26.063 35.1604 26.2157 34.393C26.3683 33.6256 26.7451 32.9207 27.2984 32.3674C27.8516 31.8142 28.5565 31.4374 29.3239 31.2847C30.0913 31.1321 30.8868 31.2104 31.6096 31.5099C32.3325 31.8093 32.9503 32.3163 33.385 32.9669C33.8197 33.6175 34.0518 34.3823 34.0518 35.1648C34.0518 36.214 33.635 37.2202 32.8931 37.9621C32.1512 38.704 31.1449 39.1208 30.0957 39.1208ZM30.0957 25.934C29.3133 25.934 28.5484 25.702 27.8979 25.2673C27.2473 24.8326 26.7402 24.2147 26.4408 23.4919C26.1414 22.769 26.063 21.9736 26.2157 21.2062C26.3683 20.4388 26.7451 19.7339 27.2984 19.1806C27.8516 18.6274 28.5565 18.2506 29.3239 18.0979C30.0913 17.9453 30.8868 18.0236 31.6096 18.3231C32.3325 18.6225 32.9503 19.1295 33.385 19.7801C33.8197 20.4307 34.0518 21.1955 34.0518 21.978C34.0518 23.0272 33.635 24.0334 32.8931 24.7753C32.1512 25.5172 31.1449 25.934 30.0957 25.934Z" fill="#FFD145"/>
<path d="M30.0958 16.7033C29.0525 16.7033 28.0327 17.0126 27.1653 17.5922C26.2979 18.1718 25.6218 18.9956 25.2226 19.9594C24.8233 20.9233 24.7189 21.9838 24.9224 23.007C25.1259 24.0302 25.6283 24.9701 26.366 25.7078C27.1037 26.4455 28.0435 26.9478 29.0667 27.1514C30.0899 27.3549 31.1505 27.2504 32.1143 26.8512C33.0782 26.452 33.902 25.7759 34.4816 24.9085C35.0611 24.041 35.3705 23.0212 35.3705 21.978C35.3705 20.579 34.8148 19.2374 33.8256 18.2482C32.8364 17.259 31.4947 16.7033 30.0958 16.7033ZM30.0958 24.6153C29.5742 24.6153 29.0643 24.4607 28.6305 24.1709C28.1968 23.8811 27.8588 23.4692 27.6592 22.9873C27.4596 22.5053 27.4073 21.9751 27.5091 21.4635C27.6109 20.9519 27.862 20.4819 28.2309 20.1131C28.5997 19.7442 29.0697 19.4931 29.5813 19.3913C30.0929 19.2895 30.6231 19.3418 31.1051 19.5414C31.587 19.741 31.9989 20.079 32.2887 20.5127C32.5785 20.9465 32.7331 21.4564 32.7331 21.978C32.7331 22.6775 32.4553 23.3483 31.9607 23.8429C31.4661 24.3375 30.7953 24.6153 30.0958 24.6153ZM30.0958 29.8901C29.0525 29.8901 28.0327 30.1994 27.1653 30.779C26.2979 31.3586 25.6218 32.1824 25.2226 33.1462C24.8233 34.1101 24.7189 35.1706 24.9224 36.1938C25.1259 37.217 25.6283 38.1569 26.366 38.8946C27.1037 39.6323 28.0435 40.1346 29.0667 40.3382C30.0899 40.5417 31.1505 40.4372 32.1143 40.038C33.0782 39.6388 33.902 38.9627 34.4816 38.0953C35.0611 37.2278 35.3705 36.208 35.3705 35.1648C35.3705 33.7658 34.8148 32.4242 33.8256 31.435C32.8364 30.4458 31.4947 29.8901 30.0958 29.8901ZM30.0958 37.8022C29.5742 37.8022 29.0643 37.6475 28.6305 37.3577C28.1968 37.0679 27.8588 36.656 27.6592 36.1741C27.4596 35.6922 27.4073 35.1619 27.5091 34.6503C27.6109 34.1387 27.862 33.6687 28.2309 33.2999C28.5997 32.9311 29.0697 32.6799 29.5813 32.5781C30.0929 32.4763 30.6231 32.5286 31.1051 32.7282C31.587 32.9278 31.9989 33.2658 32.2887 33.6995C32.5785 34.1333 32.7331 34.6432 32.7331 35.1648C32.7331 35.8643 32.4553 36.5351 31.9607 37.0297C31.4661 37.5243 30.7953 37.8022 30.0958 37.8022ZM44.6013 31.2087H41.9639V20.6593H44.6013C44.951 20.6593 45.2864 20.5204 45.5337 20.2731C45.781 20.0258 45.92 19.6904 45.92 19.3406C45.92 18.9909 45.781 18.6555 45.5337 18.4082C45.2864 18.1609 44.951 18.0219 44.6013 18.0219H41.9639V14.0659C41.9639 13.3664 41.6861 12.6956 41.1914 12.201C40.6968 11.7064 40.026 11.4285 39.3266 11.4285H20.865C20.1655 11.4285 19.4947 11.7064 19.0001 12.201C18.5055 12.6956 18.2277 13.3664 18.2277 14.0659V18.0219H15.5903C15.2406 18.0219 14.9051 18.1609 14.6578 18.4082C14.4105 18.6555 14.2716 18.9909 14.2716 19.3406C14.2716 19.6904 14.4105 20.0258 14.6578 20.2731C14.9051 20.5204 15.2406 20.6593 15.5903 20.6593H18.2277V31.2087H15.5903C15.2406 31.2087 14.9051 31.3477 14.6578 31.595C14.4105 31.8423 14.2716 32.1777 14.2716 32.5274C14.2716 32.8772 14.4105 33.2126 14.6578 33.4599C14.9051 33.7072 15.2406 33.8461 15.5903 33.8461H18.2277V43.0769C18.2277 43.7763 18.5055 44.4472 19.0001 44.9418C19.4947 45.4364 20.1655 45.7142 20.865 45.7142H39.3266C40.026 45.7142 40.6968 45.4364 41.1914 44.9418C41.6861 44.4472 41.9639 43.7763 41.9639 43.0769V33.8461H44.6013C44.951 33.8461 45.2864 33.7072 45.5337 33.4599C45.781 33.2126 45.92 32.8772 45.92 32.5274C45.92 32.1777 45.781 31.8423 45.5337 31.595C45.2864 31.3477 44.951 31.2087 44.6013 31.2087ZM39.3266 43.0769H20.865V14.0659H39.3266V43.0769Z" fill="#0279FC"/>
</svg>
