<svg width="50" height="46" viewBox="0 0 50 46" fill="none" xmlns="http://www.w3.org/2000/svg">
<rect width="40" height="40" rx="4.8" fill="#0279FC" fill-opacity="0.3"/>
<path d="M45.2287 34.8471L37.3769 31.4695L37.3553 31.4599C36.9476 31.2925 36.503 31.2253 36.0615 31.2645C35.6201 31.3036 35.1957 31.4477 34.8269 31.6839C34.7835 31.7114 34.7417 31.7413 34.7019 31.7735L30.6452 35.0935C28.0751 33.8951 25.4218 31.3671 24.1734 28.9318L27.6368 24.9782C27.6701 24.9382 27.7018 24.8982 27.7318 24.855C27.9725 24.5018 28.1186 24.0971 28.1569 23.6767C28.1953 23.2563 28.1249 22.8333 27.9518 22.4453V22.4261L24.4234 14.8756C24.1946 14.3688 23.8013 13.9466 23.302 13.6721C22.8028 13.3976 22.2245 13.2854 21.6534 13.3524C19.395 13.6377 17.3219 14.7024 15.8215 16.3478C14.3211 17.9931 13.4958 20.1066 13.4999 22.2933C13.4999 34.9975 24.2667 45.3337 37.5003 45.3337C39.7781 45.3376 41.9796 44.5454 43.6935 43.105C45.4074 41.6646 46.5166 39.6745 46.8137 37.5064C46.8836 36.9583 46.767 36.4032 46.4813 35.924C46.1957 35.4448 45.7563 35.067 45.2287 34.8471ZM37.5003 42.7737C31.8441 42.7677 26.4214 40.6081 22.4219 36.7686C18.4224 32.929 16.1728 27.7232 16.1666 22.2933C16.1604 20.7309 16.7467 19.2197 17.8162 18.0419C18.8857 16.8641 20.3652 16.1004 21.9784 15.8932C21.9777 15.8996 21.9777 15.906 21.9784 15.9124L25.4784 23.4325L22.0334 27.391C21.9984 27.4296 21.9666 27.4708 21.9384 27.5142C21.6876 27.8837 21.5404 28.3091 21.5112 28.7492C21.482 29.1893 21.5718 29.6292 21.7717 30.0263C23.2817 32.9911 26.3934 35.956 29.5152 37.404C29.9318 37.5941 30.3926 37.6773 30.8527 37.6453C31.3128 37.6134 31.7564 37.4674 32.1402 37.2216C32.183 37.1939 32.2242 37.164 32.2635 37.132L36.3152 33.8135L44.1487 37.1816C44.1487 37.1816 44.162 37.1816 44.167 37.1816C43.9539 38.7324 43.1595 40.1556 41.9324 41.1849C40.7054 42.2141 39.1297 42.7789 37.5003 42.7737Z" fill="#07478E"/>
<path d="M46.562 34.8471L38.7103 31.4695L38.6886 31.4599C38.281 31.2925 37.8363 31.2253 37.3949 31.2645C36.9534 31.3036 36.5291 31.4477 36.1602 31.6839C36.1168 31.7114 36.0751 31.7413 36.0352 31.7735L31.9785 35.0935C29.4085 33.8951 26.7551 31.3671 25.5068 28.9318L28.9701 24.9782C29.0035 24.9382 29.0351 24.8982 29.0651 24.855C29.3059 24.5018 29.4519 24.0971 29.4903 23.6767C29.5287 23.2563 29.4582 22.8333 29.2851 22.4453V22.4261L25.7568 14.8756C25.528 14.3688 25.1346 13.9466 24.6354 13.6721C24.1361 13.3976 23.5578 13.2854 22.9867 13.3524C20.7283 13.6377 18.6553 14.7024 17.1549 16.3478C15.6544 17.9931 14.8292 20.1066 14.8333 22.2933C14.8333 34.9975 25.6001 45.3337 38.8336 45.3337C41.1115 45.3376 43.313 44.5454 45.0269 43.105C46.7408 41.6646 47.8499 39.6745 48.1471 37.5064C48.2169 36.9583 48.1003 36.4032 47.8147 35.924C47.529 35.4448 47.0896 35.067 46.562 34.8471ZM38.8336 42.7737C33.1775 42.7677 27.7548 40.6081 23.7553 36.7686C19.7558 32.929 17.5061 27.7232 17.5 22.2933C17.4937 20.7309 18.0801 19.2197 19.1496 18.0419C20.219 16.8641 21.6985 16.1004 23.3117 15.8932C23.3111 15.8996 23.3111 15.906 23.3117 15.9124L26.8118 23.4325L23.3667 27.391C23.3318 27.4296 23.3 27.4708 23.2717 27.5142C23.0209 27.8837 22.8738 28.3091 22.8446 28.7492C22.8154 29.1893 22.9051 29.6292 23.105 30.0263C24.6151 32.9911 27.7268 35.956 30.8485 37.404C31.2651 37.5941 31.726 37.6773 32.1861 37.6453C32.6462 37.6134 33.0898 37.4674 33.4735 37.2216C33.5163 37.1939 33.5575 37.164 33.5969 37.132L37.6486 33.8135L45.482 37.1816C45.482 37.1816 45.4954 37.1816 45.5004 37.1816C45.2872 38.7324 44.4928 40.1556 43.2658 41.1849C42.0387 42.2141 40.4631 42.7789 38.8336 42.7737Z" fill="#07478E"/>
<path d="M48.1568 35.6805C47.8979 37.6155 46.945 39.3907 45.4752 40.6759C44.0055 41.961 42.1191 42.6687 40.1668 42.6672C34.1552 42.6672 28.3898 40.2791 24.1389 36.0282C19.888 31.7774 17.4999 26.012 17.4999 20.0003C17.4984 18.048 18.2061 16.1616 19.4912 14.6919C20.7764 13.2222 22.5516 12.2692 24.4867 12.0103C24.7727 11.9763 25.0621 12.0359 25.3115 12.1801C25.5608 12.3243 25.7568 12.5454 25.87 12.8103L29.3917 20.677C29.4782 20.8791 29.5135 21.0994 29.4943 21.3183C29.4751 21.5373 29.402 21.7481 29.2817 21.932L25.72 26.1671C25.5937 26.3577 25.5189 26.5779 25.5032 26.806C25.4874 27.0342 25.5311 27.2625 25.63 27.4687C27.0083 30.2904 29.925 33.1721 32.755 34.5371C32.9623 34.6356 33.1917 34.6783 33.4206 34.6611C33.6494 34.6438 33.8699 34.5672 34.0601 34.4388L38.2268 30.8888C38.4114 30.7659 38.6238 30.691 38.8447 30.6709C39.0656 30.6509 39.288 30.6862 39.4918 30.7738L47.3518 34.2954C47.6179 34.4079 47.8403 34.6038 47.9855 34.8536C48.1307 35.1034 48.1908 35.3935 48.1568 35.6805Z" fill="#FFD145"/>
<path d="M47.8951 33.0768L40.0434 29.5585L40.0218 29.5485C39.6141 29.3741 39.1695 29.3041 38.728 29.3449C38.2866 29.3856 37.8622 29.5358 37.4934 29.7818C37.45 29.8105 37.4082 29.8416 37.3684 29.8751L33.3117 33.3335C30.7417 32.0851 28.0883 29.4518 26.84 26.9151L30.3034 22.7967C30.3367 22.7551 30.3684 22.7134 30.3984 22.6684C30.6391 22.3006 30.7851 21.8789 30.8235 21.441C30.8619 21.0031 30.7914 20.5625 30.6184 20.1584V20.1384L27.09 12.2733C26.8612 11.7454 26.4679 11.3057 25.9686 11.0197C25.4694 10.7338 24.8911 10.6169 24.32 10.6867C22.0616 10.9838 19.9886 12.0929 18.4882 13.8068C16.9877 15.5207 16.1625 17.7222 16.1666 20.0001C16.1666 33.2335 26.9333 44.0002 40.1668 44.0002C42.4446 44.0043 44.6461 43.1791 46.36 41.6786C48.0739 40.1782 49.183 38.1052 49.4802 35.8468C49.55 35.2759 49.4334 34.6977 49.1478 34.1985C48.8621 33.6993 48.4227 33.3059 47.8951 33.0768ZM40.1668 41.3335C34.5107 41.3274 29.088 39.0777 25.0885 35.0783C21.0891 31.0788 18.8394 25.6561 18.8333 20.0001C18.827 18.3725 19.4134 16.7984 20.4828 15.5715C21.5523 14.3447 23.0318 13.5491 24.645 13.3333C24.6443 13.34 24.6443 13.3467 24.645 13.3533L28.145 21.1867L24.7 25.3101C24.665 25.3503 24.6333 25.3932 24.605 25.4384C24.3542 25.8233 24.207 26.2664 24.1778 26.7249C24.1486 27.1833 24.2384 27.6415 24.4383 28.0551C25.9483 31.1435 29.06 34.2318 32.1817 35.7402C32.5983 35.9382 33.0592 36.0249 33.5193 35.9916C33.9794 35.9583 34.423 35.8062 34.8067 35.5502C34.8495 35.5213 34.8907 35.4902 34.9301 35.4568L38.9818 32.0001L46.8151 35.5085C46.8151 35.5085 46.8285 35.5085 46.8335 35.5085C46.6203 37.1239 45.8259 38.6064 44.5989 39.6785C43.3718 40.7507 41.7962 41.339 40.1668 41.3335Z" fill="#0279FC"/>
</svg>
