<svg width="22" height="22" viewBox="0 0 22 22" fill="none" xmlns="http://www.w3.org/2000/svg">
<path d="M2.98719 3.60933C2.91323 3.67344 2.85381 3.7526 2.8129 3.84152C2.772 3.93045 2.75055 4.02708 2.75 4.12495V18.5625C2.75 18.7448 2.82243 18.9197 2.95136 19.0486C3.0803 19.1775 3.25516 19.25 3.4375 19.25C3.61984 19.25 3.7947 19.1775 3.92364 19.0486C4.05257 18.9197 4.125 18.7448 4.125 18.5625V14.7614C6.42727 12.943 8.4107 13.9235 10.6949 15.0545C12.1043 15.7514 13.622 16.5025 15.2496 16.5025C16.4467 16.5025 17.7023 16.0943 19.0154 14.9557C19.0894 14.8915 19.1488 14.8124 19.1897 14.7235C19.2306 14.6345 19.252 14.5379 19.2526 14.44V4.12495C19.2523 3.99299 19.214 3.86391 19.1423 3.75312C19.0706 3.64232 18.9686 3.5545 18.8483 3.50013C18.7281 3.44577 18.5947 3.42715 18.4642 3.44652C18.3337 3.46588 18.2115 3.5224 18.1122 3.60933C15.7059 5.69159 13.6675 4.68269 11.3051 3.51308C8.85758 2.29964 6.08266 0.92722 2.98719 3.60933ZM17.875 14.1152C15.5727 15.9336 13.5893 14.9522 11.3051 13.8221C9.15664 12.7608 6.76672 11.5766 4.125 13.1003V4.45066C6.42727 2.63222 8.4107 3.61277 10.6949 4.74284C12.8434 5.80417 15.2341 6.98839 17.875 5.46472V14.1152Z" fill="#343330"/>
</svg>
