<svg width="12" height="11" viewBox="0 0 12 11" fill="none" xmlns="http://www.w3.org/2000/svg">
<path d="M6.5625 1V2.5C6.5625 2.64918 6.50324 2.79226 6.39775 2.89775C6.29226 3.00324 6.14918 3.0625 6 3.0625C5.85082 3.0625 5.70774 3.00324 5.60225 2.89775C5.49676 2.79226 5.4375 2.64918 5.4375 2.5V1C5.4375 0.850816 5.49676 0.707742 5.60225 0.602252C5.70774 0.496763 5.85082 0.4375 6 0.4375C6.14918 0.4375 6.29226 0.496763 6.39775 0.602252C6.50324 0.707742 6.5625 0.850816 6.5625 1ZM10.5 4.9375H9C8.85082 4.9375 8.70774 4.99676 8.60225 5.10225C8.49676 5.20774 8.4375 5.35082 8.4375 5.5C8.4375 5.64918 8.49676 5.79226 8.60225 5.89775C8.70774 6.00324 8.85082 6.0625 9 6.0625H10.5C10.6492 6.0625 10.7923 6.00324 10.8977 5.89775C11.0032 5.79226 11.0625 5.64918 11.0625 5.5C11.0625 5.35082 11.0032 5.20774 10.8977 5.10225C10.7923 4.99676 10.6492 4.9375 10.5 4.9375ZM8.51906 7.22359C8.46674 7.17127 8.40462 7.12976 8.33626 7.10145C8.26789 7.07313 8.19462 7.05856 8.12063 7.05856C8.04663 7.05856 7.97336 7.07313 7.90499 7.10145C7.83663 7.12976 7.77451 7.17127 7.72219 7.22359C7.66986 7.27592 7.62836 7.33803 7.60004 7.4064C7.57172 7.47476 7.55715 7.54803 7.55715 7.62203C7.55715 7.69603 7.57172 7.7693 7.60004 7.83766C7.62836 7.90603 7.66986 7.96815 7.72219 8.02047L8.78297 9.08125C8.88864 9.18692 9.03196 9.24629 9.18141 9.24629C9.33085 9.24629 9.47417 9.18692 9.57984 9.08125C9.68552 8.97558 9.74488 8.83226 9.74488 8.68281C9.74488 8.53337 9.68552 8.39005 9.57984 8.28437L8.51906 7.22359ZM6 7.9375C5.85082 7.9375 5.70774 7.99676 5.60225 8.10225C5.49676 8.20774 5.4375 8.35082 5.4375 8.5V10C5.4375 10.1492 5.49676 10.2923 5.60225 10.3977C5.70774 10.5032 5.85082 10.5625 6 10.5625C6.14918 10.5625 6.29226 10.5032 6.39775 10.3977C6.50324 10.2923 6.5625 10.1492 6.5625 10V8.5C6.5625 8.35082 6.50324 8.20774 6.39775 8.10225C6.29226 7.99676 6.14918 7.9375 6 7.9375ZM3.48094 7.22359L2.42016 8.28437C2.31448 8.39005 2.25512 8.53337 2.25512 8.68281C2.25512 8.83226 2.31448 8.97558 2.42016 9.08125C2.52583 9.18692 2.66915 9.24629 2.81859 9.24629C2.96804 9.24629 3.11136 9.18692 3.21703 9.08125L4.27781 8.02047C4.38348 7.9148 4.44285 7.77147 4.44285 7.62203C4.44285 7.47259 4.38348 7.32927 4.27781 7.22359C4.17214 7.11792 4.02882 7.05856 3.87938 7.05856C3.72993 7.05856 3.58661 7.11792 3.48094 7.22359ZM3.5625 5.5C3.5625 5.35082 3.50324 5.20774 3.39775 5.10225C3.29226 4.99676 3.14918 4.9375 3 4.9375H1.5C1.35082 4.9375 1.20774 4.99676 1.10225 5.10225C0.996763 5.20774 0.9375 5.35082 0.9375 5.5C0.9375 5.64918 0.996763 5.79226 1.10225 5.89775C1.20774 6.00324 1.35082 6.0625 1.5 6.0625H3C3.14918 6.0625 3.29226 6.00324 3.39775 5.89775C3.50324 5.79226 3.5625 5.64918 3.5625 5.5ZM3.21562 1.92016C3.10995 1.81448 2.96663 1.75512 2.81719 1.75512C2.66774 1.75512 2.52442 1.81448 2.41875 1.92016C2.31308 2.02583 2.25371 2.16915 2.25371 2.31859C2.25371 2.46804 2.31308 2.61136 2.41875 2.71703L3.48094 3.77641C3.58661 3.88208 3.72993 3.94144 3.87938 3.94144C4.02882 3.94144 4.17214 3.88208 4.27781 3.77641C4.38348 3.67073 4.44285 3.52741 4.44285 3.37797C4.44285 3.22853 4.38348 3.0852 4.27781 2.97953L3.21562 1.92016Z" fill="#FF0000"/>
</svg>
