<svg width="20" height="21" viewBox="0 0 20 21" fill="none" xmlns="http://www.w3.org/2000/svg">
<g id="MagnifyingGlass">
<path id="Vector" d="M17.9422 17.5578L14.0305 13.6469C15.1643 12.2857 15.7297 10.5398 15.609 8.77244C15.4883 7.00506 14.6909 5.35223 13.3827 4.15779C12.0744 2.96334 10.356 2.31926 8.58498 2.35951C6.81394 2.39976 5.12659 3.12125 3.87395 4.37389C2.62131 5.62653 1.89982 7.31388 1.85957 9.08492C1.81932 10.856 2.46341 12.5744 3.65785 13.8826C4.85229 15.1909 6.50512 15.9883 8.2725 16.1089C10.0399 16.2296 11.7858 15.6642 13.1469 14.5305L17.0579 18.4422C17.1159 18.5003 17.1849 18.5463 17.2607 18.5777C17.3366 18.6092 17.4179 18.6253 17.5001 18.6253C17.5822 18.6253 17.6635 18.6092 17.7394 18.5777C17.8152 18.5463 17.8842 18.5003 17.9422 18.4422C18.0003 18.3841 18.0464 18.3152 18.0778 18.2393C18.1092 18.1634 18.1254 18.0821 18.1254 18C18.1254 17.9179 18.1092 17.8366 18.0778 17.7607C18.0464 17.6848 18.0003 17.6159 17.9422 17.5578ZM3.12506 9.25C3.12506 8.13748 3.45496 7.04994 4.07304 6.12491C4.69112 5.19989 5.56963 4.47892 6.59746 4.05317C7.6253 3.62743 8.7563 3.51604 9.84744 3.73308C10.9386 3.95012 11.9409 4.48585 12.7275 5.27252C13.5142 6.05919 14.0499 7.06147 14.267 8.15261C14.484 9.24376 14.3726 10.3748 13.9469 11.4026C13.5211 12.4304 12.8002 13.3089 11.8751 13.927C10.9501 14.5451 9.86258 14.875 8.75006 14.875C7.25872 14.8733 5.82894 14.2802 4.77441 13.2256C3.71987 12.1711 3.12671 10.7413 3.12506 9.25Z" fill="#757575"/>
</g>
</svg>
