<svg width="12" height="13" viewBox="0 0 12 13" fill="none" xmlns="http://www.w3.org/2000/svg">
<path d="M6.5625 2V3.5C6.5625 3.64918 6.50324 3.79226 6.39775 3.89775C6.29226 4.00324 6.14918 4.0625 6 4.0625C5.85082 4.0625 5.70774 4.00324 5.60225 3.89775C5.49676 3.79226 5.4375 3.64918 5.4375 3.5V2C5.4375 1.85082 5.49676 1.70774 5.60225 1.60225C5.70774 1.49676 5.85082 1.4375 6 1.4375C6.14918 1.4375 6.29226 1.49676 6.39775 1.60225C6.50324 1.70774 6.5625 1.85082 6.5625 2ZM10.5 5.9375H9C8.85082 5.9375 8.70774 5.99676 8.60225 6.10225C8.49676 6.20774 8.4375 6.35082 8.4375 6.5C8.4375 6.64918 8.49676 6.79226 8.60225 6.89775C8.70774 7.00324 8.85082 7.0625 9 7.0625H10.5C10.6492 7.0625 10.7923 7.00324 10.8977 6.89775C11.0032 6.79226 11.0625 6.64918 11.0625 6.5C11.0625 6.35082 11.0032 6.20774 10.8977 6.10225C10.7923 5.99676 10.6492 5.9375 10.5 5.9375ZM8.51906 8.22359C8.46674 8.17127 8.40462 8.12976 8.33626 8.10145C8.26789 8.07313 8.19462 8.05856 8.12063 8.05856C8.04663 8.05856 7.97336 8.07313 7.90499 8.10145C7.83663 8.12976 7.77451 8.17127 7.72219 8.22359C7.66986 8.27592 7.62836 8.33803 7.60004 8.4064C7.57172 8.47476 7.55715 8.54803 7.55715 8.62203C7.55715 8.69603 7.57172 8.7693 7.60004 8.83766C7.62836 8.90603 7.66986 8.96815 7.72219 9.02047L8.78297 10.0812C8.88864 10.1869 9.03196 10.2463 9.18141 10.2463C9.33085 10.2463 9.47417 10.1869 9.57984 10.0812C9.68552 9.97558 9.74488 9.83226 9.74488 9.68281C9.74488 9.53337 9.68552 9.39005 9.57984 9.28437L8.51906 8.22359ZM6 8.9375C5.85082 8.9375 5.70774 8.99676 5.60225 9.10225C5.49676 9.20774 5.4375 9.35082 5.4375 9.5V11C5.4375 11.1492 5.49676 11.2923 5.60225 11.3977C5.70774 11.5032 5.85082 11.5625 6 11.5625C6.14918 11.5625 6.29226 11.5032 6.39775 11.3977C6.50324 11.2923 6.5625 11.1492 6.5625 11V9.5C6.5625 9.35082 6.50324 9.20774 6.39775 9.10225C6.29226 8.99676 6.14918 8.9375 6 8.9375ZM3.48094 8.22359L2.42016 9.28437C2.31448 9.39005 2.25512 9.53337 2.25512 9.68281C2.25512 9.83226 2.31448 9.97558 2.42016 10.0812C2.52583 10.1869 2.66915 10.2463 2.81859 10.2463C2.96804 10.2463 3.11136 10.1869 3.21703 10.0812L4.27781 9.02047C4.38348 8.9148 4.44285 8.77147 4.44285 8.62203C4.44285 8.47259 4.38348 8.32927 4.27781 8.22359C4.17214 8.11792 4.02882 8.05856 3.87938 8.05856C3.72993 8.05856 3.58661 8.11792 3.48094 8.22359ZM3.5625 6.5C3.5625 6.35082 3.50324 6.20774 3.39775 6.10225C3.29226 5.99676 3.14918 5.9375 3 5.9375H1.5C1.35082 5.9375 1.20774 5.99676 1.10225 6.10225C0.996763 6.20774 0.9375 6.35082 0.9375 6.5C0.9375 6.64918 0.996763 6.79226 1.10225 6.89775C1.20774 7.00324 1.35082 7.0625 1.5 7.0625H3C3.14918 7.0625 3.29226 7.00324 3.39775 6.89775C3.50324 6.79226 3.5625 6.64918 3.5625 6.5ZM3.21562 2.92016C3.10995 2.81448 2.96663 2.75512 2.81719 2.75512C2.66774 2.75512 2.52442 2.81448 2.41875 2.92016C2.31308 3.02583 2.25371 3.16915 2.25371 3.31859C2.25371 3.46804 2.31308 3.61136 2.41875 3.71703L3.48094 4.77641C3.58661 4.88208 3.72993 4.94144 3.87938 4.94144C4.02882 4.94144 4.17214 4.88208 4.27781 4.77641C4.38348 4.67073 4.44285 4.52741 4.44285 4.37797C4.44285 4.22853 4.38348 4.0852 4.27781 3.97953L3.21562 2.92016Z" fill="#FF8A00"/>
</svg>
